<?xml version="1.0" encoding="UTF-8"?>
<!DOCTYPE svg PUBLIC "-//W3C//DTD SVG 1.1//EN" "http://www.w3.org/Graphics/SVG/1.1/DTD/svg11.dtd">
<svg version="1.1" id="Layer_1" xmlns="http://www.w3.org/2000/svg" xmlns:xlink="http://www.w3.org/1999/xlink" x="0px" y="0px" width="21px" height="21px" viewBox="0 0 21 21" enable-background="new 0 0 21 21" style=" stroke:none;fill-rule:nonzero;fill:rgb(91.998535%,91.998535%,91.598755%);fill-opacity:1;" xml:space="preserve">
  <g id="icon">
    <path d="M14.8387,6.6617c-0.6787,-0.4784,-2.3377,-1.2644,-4.3574,-1.2644c-2.0781,0,-3.5633,0.567,-4.4434,1.2644M13.4863,15.7477l0.6691,1.2224c0,0,3.1998,-0.4045,5.3071,-2.6818c-0.3588,-5.5755,-2.4494,-8.4158,-2.4494,-8.4158s-1.8718,-1.8748,-4.0824,-2.0324l-0.7047,1.6619M3.9494,13.5233c1.3219,0.9372,3.3169,1.9127,6.5318,1.9127s5.2099,-0.9755,6.5318,-1.9127M8.7881,5.502l-0.7563,-1.6619c-2.3192,0.2054,-4.0824,2.0324,-4.0824,2.0324S1.8588,8.7128,1.5,14.2883c2.1073,2.2772,5.3071,2.6818,5.3071,2.6818l0.6691,-1.2224M7.5597,12.3313c-0.8688,0,-1.5731,-0.6851,-1.5731,-1.5302S6.6909,9.271,7.5597,9.271s1.5731,0.6851,1.5731,1.5302S8.4285,12.3313,7.5597,12.3313zM13.4028,12.3313c-0.8688,0,-1.5731,-0.6851,-1.5731,-1.5302s0.7043,-1.5302,1.5731,-1.5302c0.8688,0,1.5731,0.6851,1.5731,1.5302S14.2716,12.3313,13.4028,12.3313z" />
  </g>
</svg>
