<svg width="88" height="88" viewBox="0 0 88 88" fill="none" xmlns="http://www.w3.org/2000/svg">
<path d="M88 44C88 19.6995 68.3005 0 44 0C19.6995 0 0 19.6995 0 44C0 68.3005 19.6995 88 44 88C68.3005 88 88 68.3005 88 44Z" fill="url(#paint0_linear_142_337)"/>
<path d="M28.7624 30.6662C28.7624 32.7702 30.468 34.4758 32.572 34.4758C34.6759 34.4758 36.3815 32.7702 36.3815 30.6662C36.3815 28.5624 34.6759 26.8568 32.572 26.8568C30.468 26.8568 28.7624 28.5624 28.7624 30.6662Z" stroke="#FEFEFE" stroke-width="2.28571" stroke-linecap="round" stroke-linejoin="round"/>
<path d="M51.6192 57.3329C51.6192 59.4369 53.3248 61.1425 55.4288 61.1425C57.5327 61.1425 59.2383 59.4369 59.2383 57.3329C59.2383 55.229 57.5327 53.5234 55.4288 53.5234C53.3248 53.5234 51.6192 55.229 51.6192 57.3329Z" stroke="#FEFEFE" stroke-width="2.28571" stroke-linecap="round" stroke-linejoin="round"/>
<path d="M51.6197 57.3332H42.096C39.5701 57.3332 37.1477 56.3297 35.3616 54.5437C33.5756 52.7576 32.5721 50.3352 32.5721 47.8093V42.0951L26.8578 47.8093" stroke="#FEFEFE" stroke-width="2.28571" stroke-linecap="round" stroke-linejoin="round"/>
<path d="M36.3813 30.6667H45.9051C48.4311 30.6667 50.8535 31.67 52.6395 33.4561C54.4256 35.2421 55.429 37.6647 55.429 40.1905V45.9048M55.429 45.9048L61.1432 40.1905M55.429 45.9048L49.7147 40.1905" stroke="#FEFEFE" stroke-width="2.28571" stroke-linecap="round" stroke-linejoin="round"/>
<defs>
<linearGradient id="paint0_linear_142_337" x1="-12.6575" y1="-26.6667" x2="121.88" y2="-11.9782" gradientUnits="userSpaceOnUse">
<stop stop-color="#D34FA0"/>
<stop offset="1" stop-color="#7F46F0"/>
</linearGradient>
</defs>
</svg>
