<svg width="1736" height="1736" viewBox="0 0 1736 1736" fill="none" xmlns="http://www.w3.org/2000/svg">
<path d="M1736 868C1736 1347.38 1347.38 1736 868 1736C388.617 1736 0 1347.38 0 868C0 388.617 388.617 0 868 0C1347.38 0 1736 388.617 1736 868Z" fill="white"/>
<path fill-rule="evenodd" clip-rule="evenodd" d="M868 1712C1334.13 1712 1712 1334.13 1712 868C1712 401.872 1334.13 24 868 24C401.872 24 24 401.872 24 868C24 1334.13 401.872 1712 868 1712ZM868 1736C1347.38 1736 1736 1347.38 1736 868C1736 388.617 1347.38 0 868 0C388.617 0 0 388.617 0 868C0 1347.38 388.617 1736 868 1736Z" fill="#26252C"/>
<g clip-path="url(#clip0)">
<path fill-rule="evenodd" clip-rule="evenodd" d="M669.761 599.632L856.521 276.001L905.264 673.698C908.916 703.252 915.488 763.089 883.54 811.433C843.194 868.351 809.785 880.209 776.011 892.067C759.398 897.905 742.603 903.925 725.077 915.235C664.102 951.174 317.236 1210.04 317.236 1210.04L673.96 749.042C679.254 742.292 681.445 733.9 680.349 725.508L665.927 619.517C664.832 612.584 666.292 605.652 669.761 599.632ZM1250.25 874.89L1437.33 1198.33L1068.31 1041.67C1040.87 1030.05 985.73 1005.82 959.809 954.001C930.656 890.625 937.084 855.783 943.694 820.625C946.942 803.329 950.122 785.783 949.083 764.96C948.426 694.221 897.52 264.597 897.52 264.597L1118.67 803.818C1121.87 811.775 1128.05 817.867 1135.87 821.115L1234.93 861.629C1241.49 864.148 1246.77 868.878 1250.25 874.89ZM347.247 1240.7L721.09 1240.52C728.042 1240.51 734.78 1238.31 740.24 1233.89L824.883 1168.42C831.608 1163.27 839.975 1160.97 848.472 1162.18L1426.34 1240.4C1426.34 1240.4 1028.57 1069.64 966.939 1034.84C948.375 1025.33 934.76 1013.81 921.394 1002.35C894.231 979.047 867.25 956.063 797.751 949.605C739.881 946.128 691.312 981.734 667.526 999.671L347.247 1240.7Z" fill="url(#paint0_angular)"/>
</g>
<defs>
<radialGradient id="paint0_angular" cx="0" cy="0" r="1" gradientUnits="userSpaceOnUse" gradientTransform="translate(866.5 897) rotate(37.5416) scale(755.481 793.279)">
<stop offset="0.209611" stop-color="#E478FF"/>
<stop offset="0.349746" stop-color="#5D09E1"/>
<stop offset="0.483859" stop-color="#E478FF"/>
<stop offset="0.656099" stop-color="#5D09E1"/>
<stop offset="0.849511" stop-color="#E478FF"/>
<stop offset="0.999662" stop-color="#5D09E1"/>
</radialGradient>
<clipPath id="clip0">
<rect width="1095" height="949" fill="white" transform="translate(335 282)"/>
</clipPath>
</defs>
</svg>
