<svg width="204" height="48" viewBox="0 0 204 48" fill="none" xmlns="http://www.w3.org/2000/svg">
<path d="M17.0533 1.06001C21.817 -0.40803 27.0355 -0.344407 31.7684 1.20846C35.35 2.39609 38.6237 4.45559 41.2792 7.12068C36.7879 11.5979 32.2824 16.0609 27.7935 20.5404C26.6044 19.5083 25.0078 18.9074 23.4231 19.1713C20.9879 19.4423 19.0313 21.7492 19.081 24.1669C19.0645 26.1722 20.436 28.1186 22.3216 28.8232C23.7168 29.3769 25.3418 29.2073 26.6683 28.5404C27.8599 27.8712 28.7434 26.7118 29.139 25.4134C27.4809 25.3899 25.8227 25.4087 24.1669 25.404C24.1621 24.4685 24.1645 23.5354 24.1669 22.6023C32.2185 22.6023 40.2701 22.5999 48.324 22.6023C48.369 26.4762 47.5423 30.336 46.0642 33.913C45.1474 36.0832 43.8114 38.0579 42.293 39.8559C39.8153 42.8556 36.4776 45.0941 32.8486 46.4821C27.9996 48.2305 22.5964 48.5109 17.6242 47.1018C11.2024 45.3863 5.70673 40.8055 2.62964 34.9734C0.587724 30.9204 -0.350326 26.3042 0.118699 21.7799C0.402957 18.8933 1.24625 16.0774 2.48751 13.4571C5.42721 7.6226 10.7476 2.95456 17.0533 1.06001Z" fill="white"/>
<path d="M115.688 0.272964C120.599 -0.445739 125.761 0.272965 130.183 2.55396C133.17 4.15161 135.892 6.27708 137.995 8.93511C141.101 12.6087 142.904 17.2862 143.349 22.0461C143.768 26.5728 142.778 31.1843 140.689 35.2161C137.406 41.2249 131.555 45.9212 124.792 47.3869C119.23 48.6712 113.206 47.9171 108.156 45.2591C103.911 43.0888 100.431 39.5707 98.0952 35.4517C96.0272 31.5731 94.9778 27.1336 95.2574 22.7413C95.4445 19.3481 96.411 16.0137 97.9388 12.9834C100.381 8.46147 104.2 4.62289 108.876 2.40315C111.008 1.32392 113.334 0.657058 115.688 0.272964ZM118.472 6.55278C116.288 14.9392 116.56 23.8653 118.822 32.207C117.962 30.6093 116.994 29.0682 115.916 27.6096C113.355 24.2211 110.441 21.0494 106.947 18.5964C104.908 17.1825 102.84 15.6933 100.443 14.9486C100.594 15.4105 100.746 15.8771 100.964 16.3177C102.705 19.7439 105.081 22.8167 107.769 25.5595C110.695 28.6017 114.248 30.9581 117.913 33.0246C113.599 31.8912 109.049 31.6391 104.652 32.4072C103.112 32.7042 101.544 33.0105 100.149 33.7504C100.793 34.0567 101.464 34.3159 102.16 34.4903C107.315 35.8193 112.813 35.619 117.92 34.1769C115.71 35.4211 113.786 37.4146 113.173 39.9218C115.738 39.1513 117.782 37.1413 118.936 34.7731C118.742 36.9857 118.666 39.2173 118.206 41.3969C118.976 41.3969 119.746 41.3969 120.516 41.3969C120.042 39.2267 119.95 36.9999 119.756 34.7943C120.999 37.1106 122.998 39.1607 125.583 39.9171C124.965 37.4146 123.046 35.4211 120.838 34.1793C124.96 35.3386 129.323 35.6968 133.568 35.0818C135.248 34.7943 136.967 34.5162 138.507 33.748C137.235 33.0741 135.816 32.7654 134.416 32.485C129.927 31.6131 125.258 31.8676 120.843 33.0246C124.261 31.0947 127.585 28.9198 130.389 26.1604C132.431 23.9289 134.487 21.6833 136.089 19.1077C136.896 17.7787 137.785 16.4567 138.206 14.9439C137.704 15.1018 137.202 15.2691 136.73 15.5C133.471 17.1071 130.562 19.3363 127.916 21.8034C124.822 24.862 122.039 28.2718 119.983 32.1127C122.21 23.8511 122.48 15.0193 120.348 6.7083C120.109 5.78459 119.85 4.85617 119.388 4.01258C118.953 4.80904 118.697 5.67856 118.472 6.55278Z" fill="white"/>
<path d="M51.6973 1.31688C58.9387 1.31688 66.1778 1.30981 73.4193 1.31923C76.0463 1.31452 78.6851 1.81643 81.08 2.89802C85.7631 4.96223 89.5319 9.06002 91.0811 13.926C92.808 19.0276 92.0026 24.8503 89.0866 29.3628C88.1225 30.8238 86.9167 32.108 85.6447 33.3051C88.5962 37.7634 91.5596 42.2146 94.5088 46.6753C87.843 46.6753 81.1771 46.6777 74.5113 46.6729C73.3316 44.3802 72.1377 42.0968 70.9675 39.7993C70.842 39.5001 70.6288 39.255 70.3066 39.1725C70.264 41.6727 70.3019 44.1728 70.2877 46.6753C64.0909 46.6753 57.8941 46.6753 51.6996 46.6753C51.6949 31.5543 51.6996 16.4356 51.6973 1.31688ZM68.9517 15.1655C68.9517 18.0686 68.9446 20.974 68.9564 23.8794C70.2498 23.8559 71.619 23.7522 72.7157 22.9934C74.6297 21.6079 74.9779 18.6105 73.4785 16.8008C72.4552 15.4035 70.5649 15.1608 68.9517 15.1655Z" fill="white"/>
<path d="M139.5 1.31455C145.979 1.31455 152.455 1.31455 158.934 1.31455C160.393 4.20586 161.84 7.10188 163.299 9.99319C164.688 7.10188 166.069 4.20586 167.457 1.31455C170.295 1.31455 173.135 1.31455 175.973 1.31455C177.387 4.20586 178.789 7.10188 180.201 9.99319C181.66 7.10188 183.11 4.20586 184.567 1.31455C191.045 1.31455 197.522 1.3122 204 1.31691C196.077 16.8833 188.132 32.4379 180.199 47.9996C177.382 42.6836 174.573 37.3628 171.751 32.0468C168.925 37.3605 166.123 42.6859 163.299 47.9996C155.371 32.4379 147.424 16.881 139.5 1.31455Z" fill="white"/>
</svg>
