<svg width="167" height="29" viewBox="0 0 167 29" fill="none" xmlns="http://www.w3.org/2000/svg">
<path fill-rule="evenodd" clip-rule="evenodd" d="M134.771 15.884V1.60352H131.594V7.96099H126.791C125.719 7.96099 124.666 8.17099 123.69 8.57192C122.733 8.97284 121.872 9.54558 121.126 10.2711C120.398 10.9965 119.805 11.8366 119.403 12.772C118.982 13.7457 118.772 14.7957 118.772 15.8649C118.772 16.9149 118.982 17.9649 119.403 18.9386C120.226 20.8668 121.757 22.3942 123.69 23.196C125.661 24.0169 127.901 24.0169 129.891 23.196C130.848 22.7951 131.709 22.2223 132.436 21.4778C133.164 20.7523 133.738 19.8741 134.14 18.9386C134.561 17.984 134.771 16.934 134.771 15.884ZM113.336 7.96099V11.1111H103.691C103.27 11.1111 102.849 11.2638 102.562 11.5693C102.255 11.8747 102.083 12.2757 102.102 12.6957C102.102 13.1157 102.255 13.5357 102.562 13.8412C102.849 14.1466 103.27 14.3185 103.691 14.3185H110.102C110.753 14.3185 111.384 14.433 111.978 14.6812C112.552 14.9294 113.069 15.2539 113.509 15.693C113.949 16.1131 114.293 16.6285 114.542 17.2013C115.04 18.385 115.04 19.7214 114.542 20.905C114.045 22.0505 113.126 22.9669 111.978 23.4442C111.384 23.6924 110.753 23.826 110.102 23.8069H100.495V20.6568H110.102C110.542 20.6759 110.963 20.5041 111.27 20.1986C111.576 19.8932 111.748 19.4732 111.729 19.0341C111.729 18.614 111.576 18.194 111.27 17.9077C110.963 17.6022 110.542 17.4304 110.102 17.4495H103.691C103.04 17.4495 102.409 17.3349 101.815 17.0867C101.241 16.8576 100.724 16.4949 100.303 16.0558C99.8823 15.6167 99.5378 15.1012 99.289 14.5285C99.0402 13.9366 98.9063 13.3066 98.9063 12.6766C98.9063 12.0466 99.0211 11.4166 99.289 10.8247C99.5187 10.2711 99.8632 9.75559 100.303 9.31649C100.744 8.89647 101.26 8.55282 101.815 8.30464C102.409 8.05645 103.04 7.9228 103.691 7.9419H113.336V7.96099ZM87.232 7.96099C88.3037 7.96099 89.3563 8.17099 90.3515 8.57192C92.2653 9.37376 93.7772 10.882 94.581 12.772C95.0021 13.7457 95.2126 14.7957 95.2126 15.8649V23.826H87.2511C86.1794 23.826 85.1268 23.616 84.1507 23.2151C82.2178 22.3942 80.6867 20.8668 79.8637 18.9577C79.4427 17.984 79.2322 16.934 79.2322 15.884C79.2322 14.8148 79.4427 13.7648 79.8637 12.7911C80.2656 11.8557 80.8589 10.9965 81.5862 10.2902C82.3326 9.56467 83.1938 8.99193 84.1507 8.59101C85.1076 8.17099 86.1602 7.96099 87.232 7.96099ZM75.2706 7.99917V15.9221C75.2706 16.9722 75.0601 18.0222 74.639 18.9959C74.2371 19.9505 73.6438 20.8096 72.9166 21.5351C72.1893 22.2605 71.3281 22.8524 70.3712 23.2533C69.3951 23.6733 68.3234 23.8833 67.2517 23.8642C65.9885 23.8833 64.7446 23.5778 63.6154 23.0051C62.5245 22.4514 61.5676 21.6496 60.8404 20.6568C60.1131 21.6305 59.1753 22.4514 58.0845 23.0051C56.9553 23.5969 55.7113 23.8833 54.4291 23.8642C53.3573 23.8642 52.3047 23.6542 51.3287 23.2533C50.3718 22.8524 49.5105 22.2605 48.7642 21.5351C48.0369 20.8096 47.4436 19.9505 47.0417 18.9959C46.6207 18.0222 46.4102 16.9722 46.4102 15.9221V7.99917H49.6062V15.9221C49.6062 16.5713 49.7211 17.2013 49.989 17.7931C50.2378 18.3659 50.5823 18.8813 51.0225 19.3395C51.4626 19.7786 51.9794 20.1223 52.5535 20.3705C53.1468 20.6187 53.7784 20.7523 54.4291 20.7332C55.0798 20.7332 55.7113 20.6187 56.3237 20.3705C56.8979 20.1414 57.4338 19.7786 57.8739 19.3395C58.3141 18.9004 58.6586 18.385 58.9074 17.7931C59.1562 17.2013 59.2902 16.5713 59.2902 15.9221V7.99917H62.448V15.9221C62.448 16.5713 62.5628 17.2013 62.8307 17.7931C63.0795 18.3659 63.424 18.8813 63.8642 19.3395C64.3044 19.7786 64.8211 20.1223 65.3953 20.3705C65.9885 20.6187 66.6201 20.7523 67.2708 20.7332C67.9215 20.7332 68.5531 20.6187 69.1655 20.3705C69.7396 20.1414 70.2755 19.7786 70.7157 19.3395C71.1559 18.9004 71.5003 18.385 71.7491 17.7931C71.9979 17.2013 72.1319 16.5713 72.1319 15.9221V7.99917H75.2706ZM92.0356 15.884V20.695H87.232C85.9497 20.695 84.7057 20.1986 83.8062 19.3013C82.9067 18.404 82.39 17.1631 82.39 15.9031C82.39 15.273 82.5048 14.643 82.7728 14.0512C83.5383 12.2757 85.299 11.1302 87.232 11.1302C87.8827 11.1302 88.5142 11.2447 89.1075 11.4929C90.2558 11.9702 91.1744 12.8866 91.672 14.0321C91.9017 14.6048 92.0356 15.2349 92.0356 15.884ZM126.791 20.695C127.441 20.695 128.073 20.5805 128.666 20.3323C129.24 20.0841 129.757 19.7404 130.197 19.3013C131.097 18.385 131.613 17.1631 131.594 15.884V11.1111H126.791C124.839 11.092 123.078 12.2566 122.331 14.0321C122.083 14.6239 121.949 15.2539 121.949 15.884C121.949 17.1631 122.446 18.385 123.365 19.2823C124.284 20.1986 125.508 20.695 126.791 20.695ZM153.488 20.485L151.249 18.2513L150.139 19.3395C148.704 20.8096 146.465 21.1723 144.627 20.2559L153.488 11.4738L152.378 10.3856C151.632 9.62195 150.733 9.03011 149.737 8.62919C147.804 7.84644 145.642 7.84644 143.728 8.62919C142.733 9.03011 141.833 9.62195 141.087 10.3856C140.321 11.1302 139.728 12.0084 139.345 13.0011C138.963 13.9557 138.771 14.9485 138.771 15.9794C138.771 17.0104 138.963 18.0222 139.345 18.9577C139.728 19.9505 140.321 20.8478 141.087 21.5923C142.58 23.0815 144.627 23.9215 146.752 23.9215C148.876 23.9215 150.905 23.0815 152.417 21.5923L153.488 20.485ZM143.307 12.562C142.388 13.4403 141.872 14.6812 141.891 15.9603C141.891 16.6858 142.063 17.3922 142.388 18.0413L143.69 16.7431L145.546 14.9103C146.197 14.2612 146.828 13.6503 147.441 13.0584C148.053 12.4666 148.513 12.0084 148.838 11.6838C147.958 11.2447 146.962 11.0729 145.967 11.2256C144.953 11.3593 144.015 11.8366 143.307 12.562ZM167 11.1111V7.96099H165.392C164.321 7.96099 163.268 8.17099 162.292 8.57192C161.335 8.97284 160.474 9.54558 159.728 10.2711C159 10.9965 158.407 11.8366 158.005 12.772C157.584 13.7457 157.374 14.7957 157.393 15.8649V23.826H160.589V15.884C160.589 15.2539 160.704 14.6239 160.971 14.0321C161.469 12.8866 162.388 11.9702 163.536 11.4929C164.129 11.2447 164.761 11.1111 165.412 11.1302H167V11.1111Z" fill="#2C3133"/>
<path fill-rule="evenodd" clip-rule="evenodd" d="M32.0765 13.9941C32.0956 13.9941 32.0956 13.9941 32.0765 13.9941C32.0765 14.2041 32.0765 14.3759 32.0765 14.4905C32.0765 14.5859 32.0765 14.7005 32.0765 14.7959V14.8341C32.0765 14.9296 32.0765 15.025 32.0573 15.1205C32.0573 15.1396 32.0573 15.1587 32.0573 15.1777C32.0573 15.2732 32.0573 15.3687 32.0382 15.4641C32.0382 15.4641 32.0382 15.4641 32.0382 15.4832C32.0382 15.5023 32.0382 15.5023 32.0382 15.5214C32.0382 15.6169 32.019 15.7123 32.019 15.8078C32.019 15.9032 31.9999 15.9987 31.9808 16.0941C31.9808 16.1132 31.9808 16.1132 31.9808 16.1132C31.9616 16.2087 31.9616 16.3041 31.9425 16.3996C31.9425 16.4187 31.9425 16.4378 31.9425 16.4378C31.9233 16.5332 31.9233 16.6287 31.9042 16.7242C31.9042 16.7433 31.9042 16.7433 31.9042 16.7623C31.8851 16.8578 31.8659 16.9533 31.8659 17.0487C31.8468 17.1442 31.8277 17.2396 31.8085 17.3351V17.3542C31.7894 17.4496 31.7702 17.5451 31.7511 17.6406V17.6596V17.6787C31.732 17.7742 31.7128 17.8697 31.6937 17.946V17.9651C31.6937 17.9651 31.6937 17.9651 31.6937 17.9842C31.6554 18.1751 31.598 18.366 31.5406 18.5569V18.576C31.5214 18.6524 31.5023 18.7288 31.464 18.8051L31.4449 18.8433C31.4449 18.8624 31.4449 18.8624 31.4258 18.8815C31.4066 18.9388 31.3875 18.9961 31.3683 19.0724C31.3683 19.0915 31.3492 19.1297 31.3492 19.1488C31.3492 19.1679 31.3492 19.1679 31.3301 19.187V19.2061C31.2918 19.3015 31.2726 19.3779 31.2344 19.4733C29.2249 25.0099 23.9619 28.9809 17.7994 28.9809C10.7948 28.9809 5.58917 24.0362 3.56052 18.5569C4.07725 19.3015 5.5509 21.0961 6.25901 21.8407C8.03886 23.6544 10.0675 24.9526 12.3067 25.6781C13.3976 26.0217 14.5076 26.2317 15.6367 26.3081C15.6941 26.3081 15.7707 26.3081 15.8473 26.3272C16.1343 26.3463 16.4405 26.3463 16.7467 26.3463C18.0864 26.3463 19.4261 26.0981 20.6892 25.6208C21.1103 25.4681 21.5122 25.2962 21.9141 25.1053C22.182 25.5063 22.4882 25.869 22.8136 26.2317C22.8327 26.2508 22.8518 26.2699 22.871 26.289C22.871 26.289 22.871 26.289 22.8901 26.3081C22.8901 26.3081 22.9093 26.3081 22.9093 26.3272L22.9284 26.3463C22.9284 26.3463 22.9284 26.3463 22.9475 26.3654L23.2729 26.6327L23.56 26.289C23.7131 26.0981 23.8853 25.8881 24.0384 25.6972C24.1915 25.5063 24.3446 25.2962 24.4977 25.0862C24.6508 24.8762 24.8039 24.6853 24.957 24.4753C24.957 24.4753 24.957 24.4753 24.957 24.4562C24.957 24.4562 24.957 24.4562 24.957 24.4371C24.957 24.4562 24.9762 24.4753 24.9762 24.4944C24.9953 24.5135 24.9953 24.5326 24.9953 24.5517C25.0527 24.6853 25.1293 24.819 25.2058 24.9526C25.2824 25.0862 25.3398 25.2199 25.4164 25.3535L25.5695 25.6208L25.8183 25.5063C25.8183 25.5063 25.8183 25.5063 25.8374 25.5063H25.8565L25.8757 25.4872C25.8757 25.4872 25.8948 25.4872 25.8948 25.4681C25.8948 25.4681 25.9139 25.4681 25.9139 25.449C25.9331 25.4299 25.9714 25.4108 25.9905 25.4108C26.0288 25.3726 26.0862 25.3535 26.1245 25.3153C26.201 25.2581 26.2967 25.1817 26.3733 25.1053C26.5264 24.9526 26.6603 24.7999 26.7752 24.628C26.89 24.4562 27.0048 24.2844 27.0814 24.0935C27.1579 23.9026 27.2345 23.7117 27.2919 23.5207C27.1771 23.6926 27.0622 23.8453 26.9283 23.9789C26.7943 24.1317 26.6603 24.2653 26.5264 24.3799C26.3924 24.5135 26.2393 24.609 26.0862 24.7235C26.0288 24.7617 25.9905 24.7808 25.9331 24.819C25.9139 24.7808 25.914 24.7426 25.8948 24.6853C25.8565 24.5517 25.7991 24.3989 25.7608 24.2653C25.7226 24.1317 25.6652 23.9789 25.6269 23.8453L25.5503 23.6353L25.4738 23.4253L25.225 22.7189L24.7274 23.3298C24.5743 23.5207 24.402 23.7307 24.2489 23.9217C24.0958 24.1126 23.9427 24.3226 23.7896 24.5135C23.6365 24.7235 23.4834 24.9144 23.3303 25.1244C23.2729 25.2008 23.2155 25.2772 23.158 25.3535C23.0815 25.2772 23.0049 25.2008 22.9475 25.1053C22.8518 24.9908 22.7561 24.8571 22.6796 24.7235C22.6796 24.7235 22.6796 24.7235 22.6605 24.7044L22.6222 24.6471C22.5648 24.5708 22.5265 24.4944 22.4691 24.3989C22.3925 24.2653 22.3351 24.1508 22.2777 24.0171C22.2777 23.998 22.2586 23.9789 22.2586 23.9598C22.2586 23.9408 22.2394 23.9217 22.2394 23.9217C22.2394 23.9026 22.2203 23.8835 22.2203 23.8835C22.2203 23.8644 22.2011 23.8453 22.2011 23.8262C22.2011 23.8071 22.182 23.788 22.182 23.7689C22.1629 23.7117 22.1437 23.6735 22.1246 23.6162L22.0863 23.5207C22.0672 23.4826 22.0672 23.4444 22.048 23.4062C22.0289 23.368 22.0098 23.3298 22.0098 23.2916C21.9906 23.2535 21.9906 23.2344 21.9715 23.1962C21.9715 23.1771 21.9523 23.1389 21.9523 23.1198C21.9523 23.1007 21.9523 23.1007 21.9332 23.0816L21.8949 22.9671C21.8758 22.8907 21.8567 22.8144 21.8184 22.738C21.3016 23.1198 20.6318 23.3871 19.9237 23.5971C19.407 23.7307 18.7371 23.8453 18.2013 23.9408C17.6462 24.0362 17.0912 24.0935 16.5362 24.0935C15.4262 24.1317 14.3162 23.998 13.2253 23.6926C12.1344 23.3871 11.101 22.9098 10.1441 22.2989C9.16802 21.6689 8.26852 20.9434 7.46472 20.1034C6.64177 19.2633 5.87625 18.3469 5.18727 17.3924C4.4983 16.4187 3.8476 15.4068 3.25431 14.3759C2.66103 13.3259 2.10602 12.2567 1.57015 11.1685C1.05342 10.1185 0.574963 9.06847 0.0965076 8.01843C0.0773694 7.98025 0.0582312 7.92298 0.039093 7.88479C0.996003 8.80119 2.66103 9.92758 4.21122 9.90849C6.1059 4.14286 11.4646 0 17.7802 0C23.0624 0 27.9043 2.94009 30.3923 7.65569C30.4306 7.71297 30.4688 7.78934 30.488 7.8657C30.488 7.88479 30.5071 7.88479 30.5071 7.90389C30.5071 7.90389 30.5071 7.92298 30.5263 7.92298C30.5454 7.98025 30.5837 8.03753 30.6028 8.0948C30.6219 8.11389 30.622 8.15207 30.6411 8.17117C30.6411 8.19026 30.6602 8.20935 30.6602 8.22844C30.6794 8.26662 30.6794 8.28572 30.6985 8.3239C30.6985 8.34299 30.7176 8.34299 30.7176 8.36208C30.7176 8.38117 30.7368 8.40026 30.7368 8.40026C30.7559 8.45754 30.7942 8.51481 30.8133 8.553C30.8133 8.57209 30.8325 8.57209 30.8325 8.59118C30.8325 8.61027 30.8325 8.61027 30.8516 8.62936C30.909 8.78209 30.9856 8.93483 31.043 9.08756C31.043 9.08756 31.043 9.08756 31.043 9.10665L27.1197 12.2186C27.1197 12.2186 29.6076 13.4022 31.9999 12.7722C32.0382 13.1731 32.0765 13.5932 32.0765 13.9941ZM20.0768 13.6695C21.5122 13.7268 22.871 13.1922 23.7705 12.2186H23.7513C23.7513 12.2186 23.7322 12.2186 23.7322 12.1995C23.3877 12.0467 23.0624 11.8558 22.7561 11.684C22.2394 11.3976 21.7418 11.0731 21.2442 10.7867C21.1485 10.7294 21.0337 10.6531 20.938 10.5958C20.3447 10.233 19.7514 9.87031 19.1582 9.54575C18.5649 9.2212 17.9525 8.89664 17.3209 8.61027C16.9955 8.45754 16.6893 8.3239 16.364 8.19026C16.1726 8.11389 15.9621 8.03753 15.7516 7.96116C15.675 7.92298 15.5985 7.90388 15.5219 7.8657C15.5219 7.88479 15.5219 7.88479 15.5028 7.90389C15.4836 7.94207 15.4836 7.98025 15.4645 8.01843C15.4071 8.22844 15.3688 8.43845 15.3497 8.64845C15.1583 9.67939 14.9095 11.4549 15.4262 11.9513C16.8999 13.4595 20.0768 13.6695 20.0768 13.6695Z" fill="#2C3133"/>
</svg>
