<?xml version="1.0" encoding="UTF-8"?>
<svg width="350px" height="350px" viewBox="0 0 350 350" version="1.1" xmlns="http://www.w3.org/2000/svg" xmlns:xlink="http://www.w3.org/1999/xlink">
    <title>Shape</title>
    <g id="Page-1" stroke="none" stroke-width="1" fill="none" fill-rule="evenodd">
        <path d="M5.67445925,130.628477 L198.571793,130.628477 L199.558928,130.644833 C216.276317,131.166144 229.668422,144.882171 229.668422,161.726092 C229.668422,178.728544 216.023044,192.543947 199.086033,192.818555 L198.571793,192.822721 L101.973912,192.822721 L244.713819,335.563203 C223.353177,344.850456 199.777959,350 175,350 C78.3501688,350 0,271.649831 0,175 C0,159.669163 1.97137591,144.798766 5.67445925,130.628477 Z M175,0 C271.649831,0 350,78.3501688 350,175 C350,235.053059 319.75121,288.041135 273.658813,319.559044 L178.706498,224.604958 L198.571793,224.606075 L199.824108,224.593853 C233.973732,223.926751 261.451777,196.035342 261.451777,161.726092 C261.451777,127.345712 233.85968,99.4098124 199.611629,98.8545324 L198.571793,98.8461083 L17.394939,98.8444511 C45.7145811,40.3443729 105.645824,0 175,0 Z" id="Shape" fill="#121212"></path>
    </g>
</svg>