<?xml version="1.0" encoding="UTF-8"?>
<svg xmlns="http://www.w3.org/2000/svg" xmlns:xlink="http://www.w3.org/1999/xlink" width="32px" height="32px" viewBox="0 0 32 32" version="1.1">
<g id="surface1">
<path style=" stroke:none;fill-rule:nonzero;fill:#38E4DE;fill-opacity:1;" d="M 16 0 C 7.175781 0 0 7.175781 0 16 C 0 24.824219 7.175781 32 16 32 C 24.824219 32 32 24.824219 32 16 C 32 7.175781 24.824219 0 16 0 Z M 16 29.378906 C 8.625 29.378906 2.621094 23.375 2.621094 16 C 2.621094 8.625 8.625 2.625 16 2.625 C 23.375 2.625 29.378906 8.625 29.378906 16 C 29.378906 23.375 23.375 29.378906 16 29.378906 Z M 16 29.378906 "/>
<path style=" stroke:none;fill-rule:nonzero;fill:#38E4DE;fill-opacity:1;" d="M 22.921875 9.859375 L 13.421875 19.359375 L 9.078125 15.015625 C 8.566406 14.503906 7.734375 14.503906 7.222656 15.015625 C 6.710938 15.527344 6.710938 16.359375 7.222656 16.871094 L 12.496094 22.140625 C 12.75 22.398438 13.085938 22.523438 13.421875 22.523438 C 13.757812 22.523438 14.09375 22.398438 14.347656 22.140625 L 24.777344 11.714844 C 25.289062 11.203125 25.289062 10.371094 24.777344 9.859375 C 24.265625 9.347656 23.433594 9.347656 22.921875 9.859375 Z M 22.921875 9.859375 "/>
</g>
</svg>
