<?xml version="1.0" encoding="UTF-8"?>
<svg width="408px" height="408px" viewBox="0 0 408 408" version="1.1" xmlns="http://www.w3.org/2000/svg" xmlns:xlink="http://www.w3.org/1999/xlink">
    <title>Group Copy 2</title>
    <defs>
        <linearGradient x1="113.792144%" y1="25.3421799%" x2="0%" y2="104.079373%" id="linearGradient-1">
            <stop stop-color="#832DB0" offset="0%"></stop>
            <stop stop-color="#291B55" offset="100%"></stop>
        </linearGradient>
    </defs>
    <g id="Page-1" stroke="none" stroke-width="1" fill="none" fill-rule="evenodd">
        <g id="Group-Copy-2" fill="url(#linearGradient-1)">
            <path d="M56.304,147.695 L56.492069,147.875483 L234.939192,147.875483 L236.067347,147.893049 C255.172933,148.488832 270.478197,164.164292 270.478197,183.414488 C270.478197,202.845861 254.883478,218.634893 235.526895,218.948731 L234.939192,218.953492 L124.541614,218.953492 L258.794,353.206 L204,408 L1.70530257e-13,204 L56.304,147.695 Z M204,-1.98951966e-13 L408,204 L284.479,327.52 L212.235998,255.276049 L234.939192,255.277326 L236.37041,255.263358 C275.398551,254.500956 306.80203,222.625059 306.80203,183.414488 C306.80203,144.122625 275.268206,112.195883 236.127576,111.561277 L234.939192,111.551649 L92.448,111.551 L204,-1.98951966e-13 Z" id="Shape"></path>
        </g>
    </g>
</svg>