<svg width="94" height="36" viewBox="0 0 94 36" fill="none" xmlns="http://www.w3.org/2000/svg">
<path d="M8.28047 29.1278H24V35.2148H0V29.8588L15.3456 6.46667V6.4245H0.641067V0.28125H23.9466V5.49668L8.26711 29.0294V29.1278H8.28047Z" fill="white"/>
<path d="M50 22.264C50 23.5715 49.9455 24.3697 49.8503 24.6312H32.7385C33.1333 26.1176 33.882 27.2737 34.9847 28.1132C36.0874 28.9527 37.4078 29.3794 38.9733 29.3794C41.3284 29.4069 43.2751 28.4848 44.8134 26.5993L49.0471 30.5768C46.6239 33.6734 43.1117 35.2148 38.5241 35.2148C34.903 35.2148 31.9081 34.045 29.5394 31.6915C27.1843 29.3381 26 26.269 26 22.4567C26 18.7545 27.1435 15.7266 29.4169 13.3594C31.6903 10.9922 34.5763 9.80859 38.0749 9.80859C41.6007 9.80859 44.4731 10.9784 46.6784 13.3181C48.8973 15.644 50 18.6306 50 22.264ZM38.2791 15.6028C36.9178 15.6028 35.747 15.9744 34.7941 16.7176C33.8276 17.4607 33.1605 18.5205 32.793 19.8968H43.5201C42.785 17.0341 41.0425 15.6028 38.2791 15.6028Z" fill="white"/>
<path d="M81.4803 35.2148C77.7849 35.2148 74.7864 34.0175 72.4719 31.6365C70.1573 29.2555 69 26.2139 69 22.5117C69 18.8095 70.1573 15.7679 72.4719 13.3869C74.7864 11.006 77.7849 9.80859 81.4803 9.80859C85.1362 9.80859 88.1478 10.9922 90.4887 13.3319C92.8296 15.6853 94 18.7407 94 22.5117C94 26.2827 92.8296 29.3381 90.4887 31.6916C88.1478 34.045 85.1494 35.2148 81.4803 35.2148ZM81.4803 29.3106C83.2162 29.3106 84.6628 28.6775 85.8464 27.3975C87.0168 26.1176 87.6086 24.4936 87.6086 22.5117C87.6086 20.4886 87.03 18.8508 85.8727 17.5984C84.7154 16.3322 83.2557 15.7129 81.4934 15.7129C79.6917 15.7129 78.2188 16.3597 77.0878 17.6534C75.9437 18.9471 75.3782 20.5712 75.3782 22.5255C75.3782 24.4385 75.9569 26.0488 77.1142 27.37C78.2583 28.6637 79.718 29.3106 81.4803 29.3106Z" fill="white"/>
<path d="M53 20.8244V35.2148H59.5947V21.3235C59.5947 17.0164 64.0599 15.5759 67 17.0592V10.028C60.529 8.8442 53 12.4525 53 20.8244Z" fill="white"/>
</svg>
