<svg width="117" height="106" viewBox="0 0 117 106" fill="none" xmlns="http://www.w3.org/2000/svg">
<path opacity="0.11" d="M39.8766 97.1758C16.6552 86.5832 -1.36633 72.465 0.0814988 49.1092C1.31095 29.2762 13.0978 15.7527 33.4728 8.0267C56.0009 -0.515752 76.332 5.09914 94.7663 19.5298C110.558 31.8921 118.64 44.7521 116.722 63.4881C114.753 82.7289 105.023 97.4033 84.7032 103.749C67.9494 108.981 55.6914 104.39 39.8766 97.1758Z" fill="#7C69FF"/>
<path d="M82.2989 37.9444L90.9104 29.3329C91.7576 28.4858 91.7576 27.1122 90.9104 26.265L89.6118 24.9664C88.2641 23.6188 86.4079 22.9064 84.5047 23.0066V23.0066C80.518 23.2164 77.2279 19.9263 77.4378 15.9397V15.9397C77.5379 14.0365 76.8256 12.1802 75.478 10.8326L74.1793 9.53394C73.3322 8.68677 71.9586 8.68677 71.1114 9.53394L43.0898 37.5555" stroke="#B97CD6" stroke-width="3"/>
<path d="M72.7873 37.5555L77.1226 33.2202C78.2942 32.0486 78.2942 30.1491 77.1226 28.9775L71.4658 23.3207C70.2942 22.1491 68.3947 22.1491 67.2231 23.3207L52.9883 37.5555" stroke="#B97CD6" stroke-width="3"/>
<rect x="25" y="38" width="64" height="50" rx="11" stroke="#B97CD6" stroke-width="3"/>
<rect x="63" y="54" width="26" height="18" rx="6" stroke="#B97CD6" stroke-width="3"/>
</svg>
