<svg width="68" height="68" viewBox="0 0 68 68" fill="none" xmlns="http://www.w3.org/2000/svg">
<path opacity="0.11" d="M53 30.9335C53 42.0245 41.3892 55.52 31.3343 55.52C21.2794 55.52 15 43.4634 15 32.3724C15 21.2814 23.9451 14.48 34 14.48C44.0549 14.48 53 19.8425 53 30.9335Z" fill="#7C69FF"/>
<path opacity="0.11" d="M12.2404 6.52907C15.4146 7.55982 18.1978 12.1369 17.2633 15.0146C16.3289 17.8922 12.2948 18.5688 9.12067 17.5381C5.94651 16.5073 4.83132 13.3152 5.76577 10.4376C6.70022 7.55998 9.06624 5.49833 12.2404 6.52907Z" fill="#7C69FF"/>
<path d="M11.6248 30.9074C11.3818 30.0005 11.9199 29.0683 12.8268 28.8253L47.3104 19.5854C48.2173 19.3424 49.1495 19.8806 49.3925 20.7875L50.2724 24.0717C50.5154 24.9786 49.9499 25.8894 49.1724 26.4157C47.4225 27.6003 46.5285 29.8039 47.1062 31.9599C47.6839 34.116 49.5599 35.5773 51.6677 35.7283C52.6042 35.7954 53.5494 36.3014 53.7924 37.2083L54.6724 40.4924C54.9154 41.3993 54.3772 42.3315 53.4703 42.5745L18.9867 51.8143C18.0798 52.0573 17.1477 51.5191 16.9047 50.6122L16.0247 47.3281C15.7817 46.4212 16.3472 45.5104 17.1247 44.9841C18.8746 43.7994 19.7686 41.5958 19.1909 39.4398C18.6132 37.2838 16.7372 35.8224 14.6294 35.6715C13.6929 35.6044 12.7477 35.0984 12.5047 34.1915L11.6248 30.9074Z" stroke="#FF94EE" stroke-width="1.7"/>
<path d="M38.25 22.1001L44.2 45.0501" stroke="#FF94EE" stroke-width="1.7" stroke-linecap="round" stroke-dasharray="3.4 3.4"/>
<circle cx="28.9016" cy="35.6999" r="6.8" stroke="#FF94EE" stroke-width="1.7"/>
<path d="M23.8008 40.8001L34.0008 30.6001" stroke="#FF94EE" stroke-width="1.7"/>
</svg>
