<svg width="1003" height="545" viewBox="0 0 1003 545" fill="none" xmlns="http://www.w3.org/2000/svg">
    <circle cx="924.5" cy="149.5" r="78.5" fill="url(#paint0_radial)" />
    <g style="mix-blend-mode:multiply" opacity="0.24" filter="url(#filter0_i)">
        <path d="M924.763 71C890.858 71 861.98 92.863 851 123.496C860.995 120.615 869.39 122.055 877.394 127.046C886.63 132.788 898.944 125.647 907.831 108.608C916.718 91.5474 923.737 111.573 933.999 123.747C944.261 135.921 949.556 116.605 945.452 99.0439C944.856 96.5172 943.194 88.8119 947.134 88.0811C951.547 87.2667 955.303 91.3595 958.279 94.0114C961.871 97.1854 965.442 100.61 969.731 102.782C974.534 105.204 979.85 106.77 985.042 108.086C986.294 108.399 987.546 108.712 988.798 109.004C989.25 109.109 991.795 109.318 992 109.673C978.269 86.4941 953.292 71 924.763 71Z" fill="#D5D7F1" />
    </g>
    <g style="mix-blend-mode:multiply" opacity="0.24" filter="url(#filter1_i)">
        <path d="M944.379 225.522C952.321 223.474 959.792 220.177 966.546 215.898C968.347 214.689 970.087 213.399 971.786 212.048C977.804 207.235 983.33 201.706 988.099 195.645C997.474 182.744 1003 166.874 1003 149.693C1003 146.519 1002.8 143.406 1002.43 140.334C1001.22 143.345 999.439 147.625 998.906 148.915C996.368 155.263 995.447 163.515 989.266 167.611C987.403 168.84 984.19 168.553 982.348 167.304C977.271 163.863 974.836 157.618 972.359 152.273C970.988 149.345 969.801 146.375 968.757 143.304C968.245 141.829 967.651 140.355 967.242 138.84C967.222 138.778 967.222 138.717 967.201 138.655C969.084 147.706 972.687 164.539 965.379 172.198C950.192 188.089 927.37 167.058 921.966 152.191C919.735 146.048 918.036 138.532 917.832 132C918.528 154.055 898.264 171.256 879.147 178.259C873.6 180.307 864.492 181.884 858.74 179.693C856.366 178.792 850.819 175.659 850 173.058C850.041 173.16 850.082 173.283 850.102 173.386C850.409 174.348 850.737 175.29 851.064 176.232C851.228 176.683 851.412 177.154 851.576 177.604C851.822 178.239 852.067 178.874 852.333 179.509C852.538 179.98 852.743 180.451 852.947 180.942C853.214 181.556 853.48 182.15 853.766 182.744C853.971 183.195 854.196 183.666 854.421 184.116C854.749 184.771 855.076 185.427 855.424 186.061C855.629 186.43 855.813 186.819 856.018 187.188C856.55 188.15 857.102 189.113 857.655 190.055C857.88 190.423 858.105 190.771 858.331 191.119C858.719 191.734 859.108 192.348 859.518 192.962C859.784 193.372 860.07 193.761 860.336 194.171C860.725 194.724 861.114 195.276 861.524 195.829C861.79 196.28 862.076 196.669 862.383 197.038C862.813 197.611 863.263 198.184 863.734 198.758C864 199.085 864.266 199.413 864.532 199.741C865.249 200.601 865.965 201.44 866.723 202.259C866.927 202.485 867.132 202.689 867.337 202.915C867.91 203.549 868.503 204.164 869.097 204.758C869.404 205.065 869.731 205.372 870.038 205.679C870.55 206.191 871.062 206.683 871.594 207.174C871.921 207.481 872.269 207.788 872.617 208.096C873.17 208.587 873.723 209.079 874.296 209.549C874.623 209.816 874.93 210.082 875.258 210.348C876.015 210.962 876.793 211.577 877.591 212.171C877.714 212.273 877.857 212.375 877.98 212.478C878.881 213.154 879.822 213.809 880.743 214.444C881.071 214.669 881.398 214.874 881.705 215.079C882.36 215.509 883.015 215.939 883.67 216.328C884.039 216.553 884.407 216.778 884.776 217.003C885.431 217.393 886.085 217.782 886.761 218.15C887.129 218.355 887.477 218.56 887.846 218.744C888.644 219.174 889.442 219.584 890.241 219.973C890.486 220.096 890.711 220.218 890.957 220.321C892.001 220.812 893.045 221.304 894.129 221.754C894.416 221.877 894.723 222 895.03 222.123C895.828 222.451 896.606 222.758 897.425 223.065C897.814 223.208 898.203 223.352 898.592 223.495C899.328 223.761 900.065 224.007 900.823 224.253C901.212 224.375 901.621 224.519 902.03 224.621C902.849 224.867 903.668 225.092 904.507 225.317C904.834 225.399 905.141 225.502 905.469 225.584C906.615 225.87 907.782 226.137 908.948 226.382C909.174 226.423 909.378 226.464 909.603 226.505C910.565 226.689 911.527 226.874 912.49 227.017C912.899 227.079 913.288 227.14 913.697 227.181C914.516 227.304 915.314 227.406 916.133 227.488C916.563 227.529 916.993 227.59 917.422 227.631C918.262 227.713 919.101 227.775 919.96 227.816C920.349 227.836 920.738 227.877 921.127 227.898C922.355 227.959 923.583 228 924.832 228C929.13 228 933.613 227.304 937.87 226.71C939.978 226.423 942.189 226.014 944.379 225.522Z" fill="#DDDFF2" />
    </g>
    <circle cx="473.5" cy="281.5" r="263.5" fill="url(#paint1_radial)" />
    <g style="mix-blend-mode:multiply" opacity="0.24">
        <path d="M253.249 208.632H267.134L338.681 200.079C338.681 200.079 393.156 194.718 401.692 193.654C410.227 192.589 431.585 192.589 431.585 192.589C431.585 192.589 530.901 191.525 536.25 191.525C541.599 191.525 606.735 187.229 606.735 187.229C606.735 187.229 646.264 188.293 651.575 188.293C656.924 188.293 694.291 193.654 700.702 194.718C704.154 195.288 711.59 196.163 717.773 196.885C715.269 189.586 712.424 182.438 709.314 175.481C707.644 175.481 706.127 175.481 704.989 175.481C698.578 175.481 684.693 175.481 679.344 175.481C673.995 175.481 669.746 175.481 665.46 175.481C661.173 175.481 598.162 175.481 598.162 175.481L582.153 174.417C582.153 174.417 553.321 172.288 542.623 171.223C531.926 170.159 514.854 171.223 509.506 171.223C504.157 171.223 467.852 171.223 461.441 171.223C455.03 171.223 390.956 173.352 384.545 174.417C378.134 175.481 357.838 176.546 350.365 177.61C342.891 178.675 327.945 177.61 318.309 177.61C308.711 177.61 300.138 178.675 300.138 178.675L268.082 181.868L232.536 182.286C229.881 188.673 227.491 195.212 225.366 201.827C237.468 205.325 253.249 208.632 253.249 208.632Z" fill="url(#paint2_linear)" />
        <path d="M603.55 478.671C603.55 478.671 549.074 484.032 540.538 485.096C532.003 486.161 510.645 486.161 510.645 486.161C510.645 486.161 411.329 487.225 405.98 487.225C400.631 487.225 335.495 491.521 335.495 491.521C335.495 491.521 327.718 491.293 318.576 491.065C324.418 495.361 330.45 499.467 336.633 503.269C341.185 503.269 344.069 503.269 344.069 503.269L360.077 504.333C360.077 504.333 388.909 506.462 399.607 507.527C410.305 508.591 427.376 507.527 432.725 507.527C438.074 507.527 474.378 507.527 480.789 507.527C487.2 507.527 551.274 505.398 557.685 504.333C564.096 503.269 584.392 502.204 591.865 501.102C596.683 500.418 604.574 500.608 612.199 500.836C624.907 492.7 636.895 483.5 647.972 473.311L603.55 478.671Z" fill="url(#paint3_linear)" />
        <path d="M689.132 394.158C669.861 394.158 655.939 394.158 647.365 394.158C638.792 394.158 612.009 393.322 588.451 391.649C571.19 390.433 553.967 388.494 536.706 387.277C520.621 386.175 504.499 385.376 488.376 384.616C432.952 382.031 376.655 373.401 321.231 375.91C291.451 377.279 261.634 378.039 231.816 378.913C233.333 382.639 234.889 386.327 236.558 389.976C240.086 389.976 242.742 389.976 243.538 389.976C246.763 389.976 254.236 392.486 263.91 394.158C278.553 396.705 294.031 398.188 308.143 403.092C336.481 412.939 364.629 428.222 395.585 425.181C407.99 423.964 421.116 423.166 433.104 419.782C453.513 414.003 473.088 409.403 494.408 408.149C515.386 406.894 536.403 407.579 557.381 407.579C557.419 407.579 582.04 407.579 592.737 407.579C603.435 407.579 642.016 410.088 650.59 410.088C659.163 410.088 675.21 411.76 680.597 413.433C684.466 414.65 691.598 414.992 695.316 415.068C699.375 408.301 703.131 401.306 706.583 394.158C701.006 394.158 695.088 394.158 689.132 394.158ZM383.749 410.658C371.116 410.24 360.988 405.221 361.215 399.443C361.405 393.664 371.799 389.33 384.47 389.748C397.102 390.166 407.231 395.185 407.004 400.963C406.776 406.742 396.382 411.114 383.749 410.658Z" fill="url(#paint4_linear)" />
        <path d="M259.66 133.015C261.367 132.901 263.15 132.787 265.009 132.673C279.956 131.609 325.896 132.673 337.618 132.673C349.379 132.673 409.165 136.969 421.988 136.969C434.81 136.969 489.286 138.034 511.706 138.034C534.126 138.034 567.244 147.652 633.442 148.755C654.838 149.097 676.12 148.755 695.126 148.184C683.214 128.301 668.722 110.167 652.106 94.1993C651.917 94.1993 651.765 94.1613 651.575 94.1613C630.217 93.0968 610.984 95.2257 589.626 97.3547C558.67 100.548 527.677 95.2257 496.721 93.0587C446.532 88.7628 392.056 84.5048 341.867 88.7628C325.138 90.2074 308.56 92.5645 291.944 94.9976C280.032 106.593 269.22 119.291 259.66 133.015ZM416.07 98.9135C445.546 99.9019 469.256 107.087 468.99 114.919C468.725 122.788 444.597 128.339 415.121 127.351C385.645 126.362 361.935 119.215 362.201 111.345C362.466 103.476 386.556 97.925 416.07 98.9135Z" fill="url(#paint5_linear)" />
        <path d="M227.643 280.333C230.83 280.333 244.714 282.462 253.288 283.527C279.805 286.834 306.701 284.819 333.105 289.191C355.032 292.803 377.831 293.677 399.493 298.126C414.857 301.243 429.12 308.58 443.877 313.675C485.531 328.045 530.864 329.718 573.808 320.328C594.672 315.766 614.437 307.592 634.884 301.509C655.104 295.502 675.627 293.563 696.454 291.054C696.454 291.054 716.143 291.054 731.772 291.054C731.886 287.937 732 284.857 732 281.74C732 278.394 731.886 275.087 731.734 271.779C709.732 269.916 687.805 269.346 665.688 268.358C635.415 266.989 609.505 253.075 581.509 243.418C559.316 235.739 536.213 230.188 512.655 229.732C475.212 228.971 442.891 247.296 407.042 254.823C380.145 260.45 351.769 257.979 324.493 257.903C290.427 257.789 256.361 257.903 222.256 257.903C219.335 257.903 216.642 257.903 214.1 257.903C213.417 265.506 213 273.186 213 280.942C220.549 280.599 226.543 280.333 227.643 280.333ZM519.028 253.607C552.032 254.709 578.398 267.825 577.905 282.88C577.412 297.935 550.249 309.265 517.207 308.162C484.203 307.06 457.838 293.944 458.331 278.889C458.862 263.834 486.024 252.504 519.028 253.607Z" fill="url(#paint6_linear)" />
    </g>
    <path d="M253.249 208.632H267.134L338.681 200.079C338.681 200.079 393.156 194.718 401.692 193.654C410.227 192.589 431.585 192.589 431.585 192.589C431.585 192.589 530.901 191.525 536.25 191.525C541.599 191.525 606.735 187.229 606.735 187.229C606.735 187.229 646.264 188.293 651.575 188.293C656.924 188.293 694.291 193.654 700.702 194.718C704.154 195.288 711.59 196.163 717.773 196.885C715.269 189.586 712.424 182.438 709.314 175.481C707.644 175.481 706.127 175.481 704.989 175.481C698.578 175.481 684.693 175.481 679.344 175.481C673.995 175.481 669.746 175.481 665.46 175.481C661.173 175.481 598.162 175.481 598.162 175.481L582.153 174.417C582.153 174.417 553.321 172.288 542.623 171.223C531.926 170.159 514.854 171.223 509.506 171.223C504.157 171.223 467.852 171.223 461.441 171.223C455.03 171.223 390.956 173.352 384.545 174.417C378.134 175.481 357.838 176.546 350.365 177.61C342.891 178.675 327.945 177.61 318.309 177.61C308.711 177.61 300.138 178.675 300.138 178.675L268.082 181.868L232.536 182.286C229.881 188.673 227.491 195.212 225.366 201.827C237.468 205.325 253.249 208.632 253.249 208.632Z" fill="url(#paint7_linear)" />
    <path d="M603.55 478.671C603.55 478.671 549.074 484.032 540.538 485.096C532.003 486.161 510.645 486.161 510.645 486.161C510.645 486.161 411.329 487.225 405.98 487.225C400.631 487.225 335.495 491.521 335.495 491.521C335.495 491.521 327.718 491.293 318.576 491.065C324.418 495.361 330.45 499.467 336.633 503.269C341.185 503.269 344.069 503.269 344.069 503.269L360.077 504.333C360.077 504.333 388.909 506.462 399.607 507.527C410.305 508.591 427.376 507.527 432.725 507.527C438.074 507.527 474.378 507.527 480.789 507.527C487.2 507.527 551.274 505.398 557.685 504.333C564.096 503.269 584.392 502.204 591.865 501.102C596.683 500.418 604.574 500.608 612.199 500.836C624.907 492.7 636.895 483.5 647.972 473.311L603.55 478.671Z" fill="url(#paint8_linear)" />
    <path d="M689.132 394.158C669.861 394.158 655.939 394.158 647.365 394.158C638.792 394.158 612.009 393.322 588.451 391.649C571.19 390.433 553.967 388.494 536.706 387.277C520.621 386.175 504.499 385.376 488.376 384.616C432.952 382.031 376.655 373.401 321.231 375.91C291.451 377.279 261.634 378.039 231.816 378.913C233.333 382.639 234.889 386.327 236.558 389.976C240.086 389.976 242.742 389.976 243.538 389.976C246.763 389.976 254.236 392.486 263.91 394.158C278.553 396.705 294.031 398.188 308.143 403.092C336.481 412.939 364.629 428.222 395.585 425.181C407.99 423.964 421.116 423.166 433.104 419.782C453.513 414.003 473.088 409.403 494.408 408.149C515.386 406.894 536.403 407.579 557.381 407.579C557.419 407.579 582.04 407.579 592.737 407.579C603.435 407.579 642.016 410.088 650.59 410.088C659.163 410.088 675.21 411.76 680.597 413.433C684.466 414.65 691.598 414.992 695.316 415.068C699.375 408.301 703.131 401.306 706.583 394.158C701.006 394.158 695.088 394.158 689.132 394.158ZM383.749 410.658C371.116 410.24 360.988 405.221 361.215 399.443C361.405 393.664 371.799 389.33 384.47 389.748C397.102 390.166 407.231 395.185 407.004 400.963C406.776 406.742 396.382 411.114 383.749 410.658Z" fill="url(#paint9_linear)" />
    <path d="M259.66 133.015C261.367 132.901 263.15 132.787 265.009 132.673C279.956 131.609 325.896 132.673 337.618 132.673C349.379 132.673 409.165 136.969 421.988 136.969C434.81 136.969 489.286 138.034 511.706 138.034C534.126 138.034 567.244 147.652 633.442 148.755C654.838 149.097 676.12 148.755 695.126 148.184C683.214 128.301 668.722 110.167 652.106 94.1993C651.917 94.1993 651.765 94.1613 651.575 94.1613C630.217 93.0968 610.984 95.2257 589.626 97.3547C558.67 100.548 527.677 95.2257 496.721 93.0587C446.532 88.7628 392.056 84.5048 341.867 88.7628C325.138 90.2074 308.56 92.5645 291.944 94.9976C280.032 106.593 269.22 119.291 259.66 133.015ZM416.07 98.9135C445.546 99.9019 469.256 107.087 468.99 114.919C468.725 122.788 444.597 128.339 415.121 127.351C385.645 126.362 361.935 119.215 362.201 111.345C362.466 103.476 386.556 97.925 416.07 98.9135Z" fill="url(#paint10_linear)" />
    <path d="M227.643 280.333C230.83 280.333 244.714 282.462 253.288 283.527C279.805 286.834 306.701 284.819 333.105 289.191C355.032 292.803 377.831 293.677 399.493 298.126C414.857 301.243 429.12 308.58 443.877 313.675C485.531 328.045 530.864 329.718 573.808 320.328C594.672 315.766 614.437 307.592 634.884 301.509C655.104 295.502 675.627 293.563 696.454 291.054C696.454 291.054 716.143 291.054 731.772 291.054C731.886 287.937 732 284.857 732 281.74C732 278.394 731.886 275.087 731.734 271.779C709.732 269.916 687.805 269.346 665.688 268.358C635.415 266.989 609.505 253.075 581.509 243.418C559.316 235.739 536.213 230.188 512.655 229.732C475.212 228.971 442.891 247.296 407.042 254.823C380.145 260.45 351.769 257.979 324.493 257.903C290.427 257.789 256.361 257.903 222.256 257.903C219.335 257.903 216.642 257.903 214.1 257.903C213.417 265.506 213 273.186 213 280.942C220.549 280.599 226.543 280.333 227.643 280.333ZM519.028 253.607C552.032 254.709 578.398 267.825 577.905 282.88C577.412 297.935 550.249 309.265 517.207 308.162C484.203 307.06 457.838 293.944 458.331 278.889C458.862 263.834 486.024 252.504 519.028 253.607Z" fill="url(#paint11_linear)" />
    <circle cx="74" cy="49" r="49" fill="url(#paint12_radial)" />
    <path opacity="0.56" d="M94.3292 33.8308C90.3389 32.0967 89.6081 30.7078 85.2566 31.053C78.3598 31.3982 72.5551 35.91 65.2887 35.2116C57.6695 34.5212 51.8563 31.3982 43.8759 33.1323C38.7936 34.5212 38.4324 34.5212 32.9889 33.8308C31.6868 33.6541 30.2167 33.5177 28.6542 33.4293C26.3021 38.9046 25 44.8936 25 51.1716C25 77.0384 46.9421 98 74 98C101.066 98 123 77.0304 123 51.1716C123 45.4716 121.933 40.0124 119.984 34.9627C112.189 38.5995 102.872 37.9091 94.3292 33.8308Z" fill="url(#paint13_linear)" />
    <g style="mix-blend-mode:multiply" opacity="0.1" filter="url(#filter2_i)">
        <path d="M80.7467 68.406C75.7334 71.0396 70.72 70.3774 64.994 71.3669C53.1773 73.3383 48.8849 64.7904 38.5018 63.1463C34.5574 62.4841 31.6902 62.4841 27.7541 61.1673C27.5055 61.114 27.2486 61.0455 27 60.977C30.8284 81.9851 50.6996 98 74.6644 98C101.364 98 123 78.1184 123 53.6013C123 53.4034 122.983 53.2055 122.983 53C115.111 54.7507 106.195 59.272 100.088 61.8219C93.276 64.7828 87.55 65.1177 80.7467 68.406Z" fill="#E6D0F8" />
    </g>
    <path d="M151.977 62.3437C151.392 56.2406 140.109 52.1884 122.904 50.8047C123.068 53.8356 123.052 56.883 122.833 59.8975C126.212 61.3059 128.288 63.192 128.514 65.6217C129.403 74.8958 102.741 83.4615 77.2185 86.8054C51.6878 90.1493 24.0738 88.6997 23.1921 79.4257C22.9814 77.2513 25.0582 73.4816 27.5005 71.4473C26.572 68.6387 26.3587 66.2828 25.5005 62.4492C9.89494 68.1322 0.454796 76.2218 1.0244 82.1354C2.06217 92.9579 36.6909 97.3149 78.3733 91.846C120.056 86.3853 153.007 73.1744 151.977 62.3437Z" fill="url(#paint14_radial)" />
    <path d="M151.976 57.0507C151.387 50.9477 140.03 46.8954 122.711 45.5117C122.876 48.5427 122.86 51.5901 122.64 54.6046C126.041 56.013 128.13 57.8991 128.358 60.3288C129.253 69.6028 102.415 78.1685 76.7231 81.5124C51.0234 84.8563 23.2265 83.4068 22.339 74.1327C22.1269 71.9584 24.2175 68.1887 26.6759 66.1543C25.7413 63.3457 25.5266 60.9899 24.6627 57.1562C8.95383 62.8393 -0.548813 70.9288 0.0245602 76.8425C1.0692 87.6649 35.9272 92.0219 77.8855 86.553C119.844 81.0924 153.013 67.8814 151.976 57.0507Z" fill="url(#paint15_radial)" />
    <defs>
        <filter id="filter0_i" x="851" y="71" width="197" height="70" filterUnits="userSpaceOnUse" color-interpolation-filters="sRGB">
            <feFlood flood-opacity="0" result="BackgroundImageFix" />
            <feBlend mode="normal" in="SourceGraphic" in2="BackgroundImageFix" result="shape" />
            <feColorMatrix in="SourceAlpha" type="matrix" values="0 0 0 0 0 0 0 0 0 0 0 0 0 0 0 0 0 0 127 0" result="hardAlpha" />
            <feOffset dx="56" dy="12" />
            <feGaussianBlur stdDeviation="48" />
            <feComposite in2="hardAlpha" operator="arithmetic" k2="-1" k3="1" />
            <feColorMatrix type="matrix" values="0 0 0 0 0.639216 0 0 0 0 0.67451 0 0 0 0 0.917647 0 0 0 0.12 0" />
            <feBlend mode="normal" in2="shape" result="effect1_innerShadow" />
        </filter>
        <filter id="filter1_i" x="850" y="132" width="209" height="108" filterUnits="userSpaceOnUse" color-interpolation-filters="sRGB">
            <feFlood flood-opacity="0" result="BackgroundImageFix" />
            <feBlend mode="normal" in="SourceGraphic" in2="BackgroundImageFix" result="shape" />
            <feColorMatrix in="SourceAlpha" type="matrix" values="0 0 0 0 0 0 0 0 0 0 0 0 0 0 0 0 0 0 127 0" result="hardAlpha" />
            <feOffset dx="56" dy="12" />
            <feGaussianBlur stdDeviation="48" />
            <feComposite in2="hardAlpha" operator="arithmetic" k2="-1" k3="1" />
            <feColorMatrix type="matrix" values="0 0 0 0 0.639216 0 0 0 0 0.67451 0 0 0 0 0.917647 0 0 0 0.12 0" />
            <feBlend mode="normal" in2="shape" result="effect1_innerShadow" />
        </filter>
        <filter id="filter2_i" x="27" y="53" width="152" height="57" filterUnits="userSpaceOnUse" color-interpolation-filters="sRGB">
            <feFlood flood-opacity="0" result="BackgroundImageFix" />
            <feBlend mode="normal" in="SourceGraphic" in2="BackgroundImageFix" result="shape" />
            <feColorMatrix in="SourceAlpha" type="matrix" values="0 0 0 0 0 0 0 0 0 0 0 0 0 0 0 0 0 0 127 0" result="hardAlpha" />
            <feOffset dx="56" dy="12" />
            <feGaussianBlur stdDeviation="48" />
            <feComposite in2="hardAlpha" operator="arithmetic" k2="-1" k3="1" />
            <feColorMatrix type="matrix" values="0 0 0 0 0.478397 0 0 0 0 0.249687 0 0 0 0 0.6375 0 0 0 1 0" />
            <feBlend mode="normal" in2="shape" result="effect1_innerShadow" />
        </filter>
        <radialGradient id="paint0_radial" cx="0" cy="0" r="1" gradientUnits="userSpaceOnUse" gradientTransform="translate(857.214 69.398) rotate(47.4109) scale(215.426 181.129)">
            <stop stop-color="white" />
            <stop offset="1" stop-color="#E9E2ED" />
        </radialGradient>
        <radialGradient id="paint1_radial" cx="0" cy="0" r="1" gradientUnits="userSpaceOnUse" gradientTransform="translate(247.64 12.6225) rotate(47.4109) scale(723.117 607.993)">
            <stop stop-color="white" />
            <stop offset="1" stop-color="#F4F1F5" />
        </radialGradient>
        <linearGradient id="paint2_linear" x1="732.029" y1="297.233" x2="212.686" y2="87.6014" gradientUnits="userSpaceOnUse">
            <stop offset="0.0572917" stop-color="#171C45" />
            <stop offset="1" stop-color="#1C2045" stop-opacity="0" />
        </linearGradient>
        <linearGradient id="paint3_linear" x1="732.029" y1="297.233" x2="212.686" y2="87.6014" gradientUnits="userSpaceOnUse">
            <stop offset="0.0572917" stop-color="#171C45" />
            <stop offset="1" stop-color="#1C2045" stop-opacity="0" />
        </linearGradient>
        <linearGradient id="paint4_linear" x1="732.029" y1="297.233" x2="212.686" y2="87.6014" gradientUnits="userSpaceOnUse">
            <stop offset="0.0572917" stop-color="#171C45" />
            <stop offset="1" stop-color="#1C2045" stop-opacity="0" />
        </linearGradient>
        <linearGradient id="paint5_linear" x1="732.029" y1="297.233" x2="212.686" y2="87.6014" gradientUnits="userSpaceOnUse">
            <stop offset="0.0572917" stop-color="#171C45" />
            <stop offset="1" stop-color="#1C2045" stop-opacity="0" />
        </linearGradient>
        <linearGradient id="paint6_linear" x1="732.029" y1="297.233" x2="212.686" y2="87.6014" gradientUnits="userSpaceOnUse">
            <stop offset="0.0572917" stop-color="#171C45" />
            <stop offset="1" stop-color="#1C2045" stop-opacity="0" />
        </linearGradient>
        <linearGradient id="paint7_linear" x1="732.029" y1="297.233" x2="212.686" y2="87.6014" gradientUnits="userSpaceOnUse">
            <stop offset="0.0572917" stop-color="#DBDCE8" />
            <stop offset="1" stop-color="white" stop-opacity="0" />
        </linearGradient>
        <linearGradient id="paint8_linear" x1="732.029" y1="297.233" x2="212.686" y2="87.6014" gradientUnits="userSpaceOnUse">
            <stop offset="0.0572917" stop-color="#DBDCE8" />
            <stop offset="1" stop-color="white" stop-opacity="0" />
        </linearGradient>
        <linearGradient id="paint9_linear" x1="732.029" y1="297.233" x2="212.686" y2="87.6014" gradientUnits="userSpaceOnUse">
            <stop offset="0.0572917" stop-color="#DBDCE8" />
            <stop offset="1" stop-color="white" stop-opacity="0" />
        </linearGradient>
        <linearGradient id="paint10_linear" x1="732.029" y1="297.233" x2="212.686" y2="87.6014" gradientUnits="userSpaceOnUse">
            <stop offset="0.0572917" stop-color="#DBDCE8" />
            <stop offset="1" stop-color="white" stop-opacity="0" />
        </linearGradient>
        <linearGradient id="paint11_linear" x1="732.029" y1="297.233" x2="212.686" y2="87.6014" gradientUnits="userSpaceOnUse">
            <stop offset="0.0572917" stop-color="#DBDCE8" />
            <stop offset="1" stop-color="white" stop-opacity="0" />
        </linearGradient>
        <radialGradient id="paint12_radial" cx="0" cy="0" r="1" gradientUnits="userSpaceOnUse" gradientTransform="translate(31.9995 -0.999997) rotate(47.4109) scale(134.47 113.061)">
            <stop stop-color="white" />
            <stop offset="1" stop-color="#E9E2ED" />
        </radialGradient>
        <linearGradient id="paint13_linear" x1="123.006" y1="64.4575" x2="30.2404" y2="20.0299" gradientUnits="userSpaceOnUse">
            <stop stop-color="#CDCED6" />
            <stop offset="1" stop-color="#CECFD9" stop-opacity="0" />
        </linearGradient>
        <radialGradient id="paint14_radial" cx="0" cy="0" r="1" gradientUnits="userSpaceOnUse" gradientTransform="translate(1 73.0352) scale(151 111.752)">
            <stop stop-color="#E4CDF7" />
            <stop offset="0.189935" stop-color="#DDD3E4" />
            <stop offset="1" stop-color="#C6C2C9" />
        </radialGradient>
        <radialGradient id="paint15_radial" cx="0" cy="0" r="1" gradientUnits="userSpaceOnUse" gradientTransform="translate(4.26637e-06 66.6836) rotate(0.399026) scale(152.003 93.3305)">
            <stop stop-color="#FAF1FF" />
            <stop offset="1" stop-color="#E1DAEF" stop-opacity="0.35" />
        </radialGradient>
    </defs>
</svg>
