<svg id="svg" version="1.1" xmlns="http://www.w3.org/2000/svg" xmlns:xlink="http://www.w3.org/1999/xlink" width="400" height="400" viewBox="0, 0, 400,400"><g id="svgg"><path id="path0" d="M293.917 73.667 L 261.250 73.751 293.708 73.792 L 326.167 73.833 326.165 107.208 C 326.164 143.274,326.179 142.618,325.283 145.333 C 324.581 147.462,324.051 148.795,323.576 149.622 C 323.326 150.059,323.006 150.642,322.865 150.917 C 321.705 153.187,315.952 159.167,314.928 159.167 C 314.877 159.167,314.293 159.504,313.630 159.917 C 312.968 160.329,312.366 160.667,312.294 160.667 C 312.222 160.667,311.471 160.962,310.623 161.323 C 309.776 161.685,308.521 162.102,307.833 162.251 C 303.798 163.123,306.700 163.053,270.417 163.155 L 236.750 163.250 236.750 200.083 L 236.750 236.917 268.667 236.963 C 312.259 237.026,315.224 236.884,325.667 234.238 C 326.904 233.924,328.254 233.584,328.667 233.483 C 329.900 233.180,334.154 231.840,335.583 231.303 C 336.317 231.028,337.422 230.625,338.039 230.408 C 338.656 230.191,339.735 229.747,340.437 229.423 C 341.139 229.099,341.777 228.833,341.855 228.833 C 342.087 228.833,348.493 225.666,349.750 224.929 C 350.392 224.553,351.179 224.102,351.500 223.927 C 351.821 223.752,352.383 223.418,352.750 223.185 C 353.117 222.953,353.620 222.647,353.868 222.506 C 354.945 221.894,356.480 220.901,357.265 220.308 C 357.732 219.955,358.170 219.667,358.238 219.667 C 358.306 219.667,358.786 219.343,359.306 218.947 C 359.825 218.552,360.887 217.750,361.667 217.166 C 367.054 213.127,374.079 206.357,378.000 201.425 C 378.412 200.906,379.015 200.167,379.339 199.782 C 379.909 199.106,380.481 198.351,382.015 196.250 C 382.985 194.923,384.833 192.183,384.833 192.073 C 384.833 192.025,385.171 191.492,385.583 190.890 C 385.996 190.287,386.333 189.732,386.333 189.656 C 386.333 189.579,386.563 189.177,386.843 188.761 C 389.168 185.316,394.111 174.331,395.486 169.554 C 395.666 168.928,396.073 167.554,396.391 166.500 C 397.188 163.855,398.304 159.172,398.495 157.667 C 398.582 156.979,398.736 156.004,398.836 155.500 C 398.937 154.996,399.218 153.271,399.461 151.667 L 399.904 148.750 399.956 111.125 L 400.008 73.500 363.296 73.541 C 343.104 73.564,311.883 73.620,293.917 73.667 M163.082 130.000 C 163.082 148.287,163.101 155.769,163.125 146.625 C 163.149 137.481,163.149 122.519,163.125 113.375 C 163.101 104.231,163.082 111.712,163.082 130.000 " stroke="none" fill="#0ca4eb" fill-rule="evenodd"></path><path id="path1" d="M252.653 0.062 C 252.615 0.097,251.983 0.175,251.250 0.237 C 249.230 0.407,247.040 0.724,241.250 1.685 C 240.608 1.791,239.152 2.134,238.013 2.446 C 236.874 2.758,235.749 3.038,235.513 3.068 C 234.957 3.138,233.839 3.443,232.583 3.868 C 232.033 4.054,230.983 4.376,230.250 4.584 C 228.359 5.121,223.411 7.011,222.755 7.448 C 222.574 7.568,222.301 7.667,222.148 7.667 C 221.995 7.667,221.186 8.004,220.351 8.417 C 219.516 8.829,218.766 9.167,218.685 9.167 C 218.603 9.167,217.936 9.504,217.202 9.917 C 216.469 10.329,215.787 10.667,215.688 10.667 C 215.588 10.667,215.111 10.919,214.628 11.226 C 214.145 11.534,213.262 12.027,212.667 12.322 C 212.071 12.617,211.345 13.040,211.053 13.262 C 210.761 13.485,210.474 13.667,210.415 13.667 C 210.356 13.667,209.787 14.004,209.149 14.417 C 208.511 14.829,207.954 15.167,207.910 15.167 C 207.831 15.167,205.036 17.052,204.083 17.747 C 202.099 19.197,200.056 20.750,199.917 20.917 C 199.825 21.026,199.500 21.286,199.195 21.495 C 198.890 21.704,198.469 22.034,198.258 22.229 C 198.048 22.424,197.660 22.762,197.397 22.979 C 196.344 23.848,193.980 26.015,192.102 27.832 C 189.149 30.691,183.333 37.312,183.333 37.816 C 183.333 37.917,183.270 38.000,183.193 38.000 C 183.117 38.000,182.616 38.607,182.082 39.350 C 181.547 40.092,181.019 40.791,180.907 40.902 C 180.796 41.013,180.549 41.411,180.357 41.787 C 180.166 42.162,179.951 42.495,179.879 42.526 C 179.808 42.558,179.554 42.883,179.315 43.250 C 179.076 43.617,178.532 44.452,178.107 45.106 C 177.681 45.760,177.333 46.373,177.333 46.469 C 177.333 46.565,177.229 46.747,177.102 46.874 C 176.975 47.001,176.626 47.550,176.326 48.094 C 176.027 48.638,175.506 49.533,175.170 50.083 C 174.490 51.194,171.167 57.900,171.167 58.161 C 171.167 58.252,170.869 58.962,170.505 59.739 C 170.141 60.516,169.792 61.361,169.728 61.617 C 169.665 61.874,169.402 62.580,169.145 63.186 C 168.647 64.363,168.614 64.458,167.451 68.167 C 166.686 70.608,166.524 71.200,165.680 74.667 C 165.218 76.568,164.545 79.942,164.087 82.667 C 163.956 83.446,163.772 85.058,163.678 86.250 C 163.584 87.442,163.428 89.392,163.330 90.583 C 163.210 92.049,163.169 104.155,163.202 128.000 L 163.250 163.250 200.042 163.292 L 236.833 163.334 236.836 131.042 C 236.839 93.281,236.820 93.720,238.670 89.388 C 239.035 88.535,239.333 87.786,239.333 87.724 C 239.333 87.662,239.671 87.070,240.083 86.408 C 240.496 85.746,240.833 85.151,240.833 85.085 C 240.833 84.009,246.998 78.117,249.202 77.087 C 249.504 76.946,249.993 76.675,250.289 76.485 C 250.818 76.145,251.675 75.802,254.487 74.800 C 257.475 73.736,255.876 73.781,292.875 73.716 L 326.500 73.656 326.500 36.828 L 326.500 0.000 289.611 0.000 C 269.322 0.000,252.691 0.028,252.653 0.062 " stroke="none" fill="#3be4dc" fill-rule="evenodd"></path><path id="path2" d="M163.252 236.805 C 163.205 236.927,163.165 251.440,163.163 269.055 C 163.158 306.639,163.174 306.296,161.330 310.612 C 160.965 311.465,160.667 312.227,160.667 312.305 C 160.667 312.382,160.331 312.964,159.920 313.598 C 159.510 314.231,159.172 314.804,159.170 314.870 C 159.141 315.868,152.208 322.667,151.220 322.667 C 151.156 322.667,150.601 322.970,149.987 323.341 C 149.001 323.937,147.184 324.678,144.833 325.445 C 142.650 326.156,142.263 326.164,107.143 326.165 C 76.804 326.167,73.693 326.191,73.601 326.430 C 73.546 326.575,73.500 343.189,73.500 363.350 L 73.500 400.007 111.125 399.955 C 152.190 399.899,148.834 399.974,154.583 398.984 C 155.683 398.795,157.108 398.576,157.750 398.498 C 158.392 398.420,160.079 398.061,161.500 397.701 C 162.921 397.341,164.346 396.998,164.667 396.938 C 165.388 396.804,169.921 395.429,171.167 394.966 C 171.671 394.779,172.871 394.341,173.833 393.992 C 176.164 393.148,178.482 392.181,179.954 391.440 C 180.616 391.106,181.227 390.833,181.311 390.833 C 181.395 390.833,182.064 390.496,182.798 390.083 C 183.531 389.671,184.216 389.333,184.319 389.333 C 184.421 389.333,185.062 388.996,185.741 388.583 C 186.421 388.171,187.038 387.833,187.113 387.833 C 187.189 387.833,187.763 387.495,188.390 387.083 C 189.018 386.671,189.590 386.333,189.663 386.333 C 189.735 386.333,190.287 385.996,190.890 385.583 C 191.492 385.171,192.029 384.833,192.083 384.833 C 192.198 384.833,194.948 382.985,195.921 382.254 C 196.289 381.977,197.358 381.191,198.296 380.508 C 199.233 379.825,200.000 379.204,200.000 379.128 C 200.000 379.051,200.145 378.935,200.322 378.870 C 200.695 378.731,201.109 378.378,204.833 375.028 C 207.840 372.322,211.244 368.843,213.583 366.084 C 214.408 365.111,215.350 364.000,215.677 363.616 C 216.003 363.231,216.737 362.279,217.307 361.500 C 217.877 360.721,218.561 359.813,218.828 359.482 C 219.094 359.151,219.474 358.589,219.672 358.232 C 219.871 357.875,220.168 357.433,220.333 357.250 C 220.619 356.932,221.970 354.824,222.500 353.868 C 222.638 353.620,222.908 353.192,223.100 352.917 C 223.292 352.642,223.734 351.892,224.083 351.250 C 224.431 350.608,224.881 349.821,225.082 349.500 C 225.543 348.765,228.833 342.066,228.833 341.864 C 228.833 341.781,229.099 341.139,229.423 340.437 C 229.747 339.735,230.191 338.656,230.410 338.039 C 230.628 337.422,231.031 336.317,231.305 335.583 C 233.905 328.618,235.856 319.733,236.501 311.917 C 236.910 306.962,236.983 300.700,236.991 269.395 C 236.999 242.463,236.962 237.010,236.775 236.854 C 236.416 236.556,163.366 236.507,163.252 236.805 " stroke="none" fill="#7c44f3" fill-rule="evenodd"></path><path id="path3" d="M236.915 130.750 C 236.915 148.625,236.934 155.913,236.958 146.945 C 236.982 137.977,236.982 123.352,236.958 114.445 C 236.934 105.538,236.915 112.875,236.915 130.750 M96.618 163.105 C 96.560 163.162,95.648 163.205,94.590 163.200 C 93.532 163.195,92.667 163.241,92.667 163.304 C 92.667 163.366,108.485 163.394,127.819 163.367 L 162.971 163.317 163.030 199.950 C 163.062 220.098,163.082 236.602,163.073 236.624 C 163.064 236.647,147.969 236.666,129.529 236.667 C 104.498 236.669,96.000 236.718,96.000 236.860 C 96.000 236.998,96.492 237.021,97.776 236.942 C 98.753 236.882,113.903 236.833,131.443 236.833 L 163.333 236.833 163.333 200.117 C 163.333 171.781,163.288 163.354,163.133 163.200 C 162.919 162.986,96.831 162.891,96.618 163.105 M91.440 163.417 C 91.387 163.554,91.416 163.667,91.505 163.667 C 91.594 163.667,91.667 163.602,91.667 163.523 C 91.667 163.444,91.854 163.415,92.083 163.459 C 92.327 163.506,92.500 163.461,92.500 163.353 C 92.500 163.070,91.551 163.128,91.440 163.417 M89.401 163.457 C 89.576 163.631,90.500 163.648,90.500 163.476 C 90.500 163.398,90.225 163.333,89.889 163.333 C 89.553 163.333,89.333 163.389,89.401 163.457 M87.464 163.592 C 87.413 163.642,86.903 163.686,86.330 163.689 C 85.757 163.692,84.905 163.762,84.436 163.845 C 83.967 163.928,83.260 164.029,82.866 164.070 C 81.809 164.179,81.167 164.341,81.167 164.499 C 81.167 164.575,81.373 164.607,81.625 164.569 C 81.877 164.532,82.454 164.459,82.907 164.408 C 83.360 164.356,83.793 164.275,83.871 164.227 C 83.948 164.179,84.402 164.102,84.880 164.055 C 85.359 164.008,85.900 163.944,86.083 163.914 C 86.267 163.883,86.735 163.853,87.125 163.846 C 87.515 163.839,87.833 163.758,87.833 163.667 C 87.833 163.487,87.613 163.442,87.464 163.592 M79.542 164.622 C 78.304 164.880,77.833 165.241,78.958 165.069 C 79.302 165.017,79.696 164.970,79.833 164.964 C 79.971 164.959,80.176 164.881,80.290 164.792 C 80.403 164.703,80.609 164.673,80.748 164.726 C 80.902 164.785,81.000 164.728,81.000 164.578 C 81.000 164.443,80.944 164.342,80.875 164.352 C 80.806 164.362,80.206 164.484,79.542 164.622 M75.875 165.284 C 75.206 165.413,75.479 165.666,76.190 165.577 C 77.138 165.458,77.621 165.171,76.833 165.194 C 76.512 165.204,76.081 165.245,75.875 165.284 M74.800 165.589 C 74.752 165.637,74.533 165.711,74.314 165.752 C 73.224 165.959,72.897 166.054,72.683 166.228 C 72.554 166.332,72.442 166.386,72.433 166.348 C 72.424 166.311,72.004 166.382,71.500 166.507 C 70.996 166.632,70.490 166.715,70.375 166.693 C 70.260 166.670,70.167 166.718,70.167 166.798 C 70.167 166.879,70.073 166.953,69.958 166.962 C 69.844 166.972,69.600 167.017,69.417 167.061 C 69.233 167.105,68.990 167.147,68.875 167.154 C 68.760 167.161,68.667 167.274,68.667 167.405 C 68.667 167.668,68.824 167.635,70.553 167.008 C 71.087 166.814,71.780 166.646,72.095 166.634 C 72.409 166.622,72.667 166.566,72.667 166.509 C 72.667 166.452,72.817 166.390,73.000 166.373 C 73.725 166.304,73.833 166.272,73.833 166.129 C 73.833 166.047,73.908 166.027,74.000 166.083 C 74.092 166.140,74.167 166.121,74.167 166.042 C 74.167 165.963,74.367 165.902,74.611 165.907 C 74.855 165.912,75.086 165.823,75.125 165.708 C 75.194 165.502,74.970 165.419,74.800 165.589 M67.958 167.448 C 67.798 167.490,67.667 167.592,67.667 167.674 C 67.667 167.756,67.554 167.780,67.417 167.727 C 67.279 167.674,67.167 167.714,67.167 167.816 C 67.167 167.917,67.110 167.991,67.042 167.980 C 66.973 167.969,66.879 167.975,66.833 167.993 C 66.787 168.010,66.567 168.058,66.343 168.099 C 65.871 168.186,65.756 168.268,65.947 168.380 C 66.022 168.425,66.271 168.383,66.500 168.287 C 66.729 168.191,67.048 168.097,67.208 168.077 C 67.369 168.058,67.537 168.023,67.583 168.000 C 67.629 167.977,67.728 167.949,67.804 167.938 C 67.879 167.926,68.072 167.785,68.232 167.625 C 68.526 167.331,68.492 167.309,67.958 167.448 M64.792 168.448 C 64.631 168.490,64.500 168.598,64.500 168.689 C 64.500 168.779,64.425 168.807,64.333 168.750 C 64.242 168.693,64.167 168.726,64.167 168.823 C 64.167 168.921,64.110 168.991,64.042 168.980 C 63.973 168.969,63.879 168.975,63.833 168.993 C 63.788 169.011,63.617 169.051,63.454 169.082 C 63.161 169.138,62.236 169.485,60.208 170.299 C 59.635 170.529,59.167 170.780,59.167 170.858 C 59.167 170.936,59.110 170.987,59.042 170.971 C 58.802 170.914,57.571 171.328,57.245 171.575 C 57.064 171.711,56.800 171.825,56.656 171.828 C 56.513 171.831,56.232 171.986,56.031 172.173 C 55.831 172.360,55.667 172.471,55.667 172.419 C 55.667 172.367,55.423 172.455,55.125 172.614 C 54.827 172.773,54.530 172.906,54.465 172.910 C 54.329 172.918,51.458 174.375,51.334 174.500 C 51.288 174.546,50.987 174.712,50.667 174.870 C 49.467 175.460,47.565 176.546,47.053 176.933 C 46.761 177.153,46.439 177.333,46.337 177.333 C 46.235 177.333,45.967 177.517,45.742 177.742 C 45.517 177.967,45.333 178.115,45.333 178.070 C 45.333 178.025,45.181 178.070,44.995 178.169 C 44.809 178.269,44.701 178.420,44.754 178.506 C 44.807 178.592,44.753 178.628,44.634 178.586 C 44.394 178.501,43.720 178.942,43.866 179.088 C 43.994 179.216,44.876 178.804,45.120 178.502 C 45.231 178.363,45.325 178.309,45.328 178.382 C 45.333 178.512,45.554 178.359,46.179 177.792 C 46.355 177.631,46.519 177.505,46.542 177.511 C 46.717 177.556,47.305 177.222,47.556 176.934 C 47.725 176.741,47.807 176.689,47.739 176.817 C 47.592 177.096,47.863 176.950,48.465 176.427 C 48.682 176.238,48.910 176.081,48.972 176.077 C 49.033 176.074,49.271 175.968,49.500 175.841 C 49.729 175.714,49.933 175.642,49.953 175.680 C 49.973 175.719,50.142 175.619,50.330 175.458 C 50.517 175.298,50.739 175.167,50.823 175.167 C 50.907 175.167,51.105 175.038,51.262 174.881 C 51.418 174.724,51.666 174.578,51.812 174.557 C 51.958 174.536,52.104 174.439,52.136 174.341 C 52.169 174.244,52.264 174.207,52.348 174.259 C 52.431 174.311,52.500 174.270,52.500 174.169 C 52.500 174.068,52.594 174.002,52.708 174.022 C 52.981 174.069,53.833 173.653,53.833 173.473 C 53.833 173.396,53.890 173.345,53.958 173.359 C 54.027 173.374,54.517 173.186,55.046 172.943 C 55.576 172.699,56.055 172.500,56.111 172.500 C 56.167 172.500,56.321 172.369,56.452 172.208 C 56.584 172.048,56.649 172.002,56.597 172.106 C 56.546 172.211,57.009 172.053,57.627 171.755 C 58.244 171.457,59.069 171.116,59.458 170.997 C 59.848 170.878,60.167 170.704,60.167 170.612 C 60.167 170.520,60.214 170.491,60.271 170.549 C 60.329 170.606,60.590 170.542,60.853 170.407 C 61.115 170.271,61.369 170.163,61.417 170.167 C 61.465 170.171,61.836 169.990,62.241 169.763 C 62.755 169.477,63.003 169.412,63.059 169.551 C 63.117 169.693,63.144 169.687,63.154 169.532 C 63.161 169.412,63.234 169.355,63.316 169.406 C 63.398 169.457,63.679 169.387,63.941 169.250 C 64.203 169.114,64.501 169.002,64.605 169.001 C 64.708 169.000,64.882 168.892,64.992 168.760 C 65.101 168.628,65.298 168.561,65.429 168.611 C 65.560 168.661,65.667 168.619,65.667 168.518 C 65.667 168.333,65.335 168.306,64.792 168.448 M42.742 179.676 C 42.288 180.036,41.842 180.331,41.750 180.332 C 41.658 180.333,41.358 180.526,41.083 180.760 C 40.036 181.653,39.901 181.756,39.498 181.965 C 38.658 182.399,37.708 183.314,38.125 183.287 C 38.331 183.273,38.500 183.161,38.500 183.038 C 38.500 182.915,38.569 182.857,38.654 182.909 C 38.739 182.961,39.056 182.778,39.359 182.501 C 39.662 182.225,40.042 181.956,40.205 181.905 C 40.367 181.853,40.500 181.736,40.500 181.646 C 40.500 181.555,40.556 181.508,40.625 181.543 C 40.800 181.630,41.490 180.879,41.358 180.745 C 41.299 180.684,41.362 180.655,41.500 180.680 C 41.872 180.746,42.667 180.315,42.667 180.047 C 42.667 179.919,42.742 179.860,42.835 179.917 C 42.927 179.974,43.047 179.904,43.102 179.761 C 43.157 179.617,43.344 179.500,43.518 179.500 C 43.691 179.500,43.833 179.429,43.833 179.343 C 43.833 178.968,43.513 179.065,42.742 179.676 M37.434 183.695 C 37.513 183.823,37.466 183.856,37.297 183.791 C 37.023 183.686,35.912 184.690,36.098 184.876 C 36.155 184.933,36.288 184.909,36.393 184.821 C 36.498 184.734,36.862 184.449,37.203 184.187 C 37.544 183.926,37.775 183.664,37.717 183.606 C 37.532 183.421,37.309 183.492,37.434 183.695 M34.492 185.903 C 33.809 186.519,32.936 187.261,32.552 187.553 C 32.168 187.845,31.761 188.252,31.649 188.458 C 31.536 188.665,31.360 188.833,31.257 188.833 C 31.154 188.833,29.836 190.093,28.327 191.632 C 24.636 195.398,24.167 195.909,24.167 196.164 C 24.167 196.284,24.386 196.153,24.654 195.873 C 24.922 195.593,25.173 195.396,25.213 195.435 C 25.306 195.529,26.167 194.229,26.167 193.994 C 26.167 193.895,26.247 193.863,26.346 193.924 C 26.526 194.036,27.333 193.393,27.333 193.138 C 27.333 192.949,27.954 192.342,28.049 192.438 C 28.174 192.563,29.010 191.484,28.911 191.324 C 28.861 191.243,29.080 191.068,29.397 190.936 C 29.714 190.803,30.109 190.482,30.275 190.222 C 30.440 189.963,30.686 189.681,30.822 189.598 C 30.957 189.514,31.465 189.039,31.951 188.541 C 32.436 188.044,32.833 187.694,32.833 187.763 C 32.833 187.832,33.168 187.548,33.578 187.133 C 33.987 186.718,34.362 186.418,34.411 186.467 C 34.460 186.516,34.500 186.464,34.500 186.351 C 34.500 186.238,34.587 186.201,34.695 186.268 C 34.826 186.349,34.855 186.297,34.784 186.111 C 34.720 185.946,34.760 185.832,34.880 185.830 C 35.220 185.823,35.882 185.229,35.805 184.999 C 35.760 184.864,35.270 185.201,34.492 185.903 M23.403 196.875 C 22.334 198.041,22.266 198.147,22.611 198.099 C 22.779 198.076,23.067 197.825,23.250 197.541 C 23.433 197.258,23.733 196.978,23.917 196.919 C 24.132 196.849,24.176 196.780,24.041 196.725 C 23.925 196.677,23.874 196.570,23.925 196.486 C 24.117 196.176,23.885 196.349,23.403 196.875 M21.759 198.786 C 21.106 199.440,20.891 199.879,21.260 199.807 C 21.418 199.775,21.631 199.605,21.732 199.429 C 21.834 199.252,22.104 198.935,22.333 198.726 C 22.653 198.433,22.687 198.343,22.481 198.339 C 22.333 198.336,22.008 198.537,21.759 198.786 M20.424 200.542 C 18.718 202.633,18.522 202.918,18.762 202.971 C 19.052 203.036,19.653 202.371,19.661 201.976 C 19.664 201.826,19.784 201.657,19.927 201.602 C 20.071 201.547,20.146 201.435,20.096 201.353 C 20.045 201.272,20.160 201.164,20.352 201.113 C 20.544 201.063,20.651 200.942,20.590 200.845 C 20.530 200.747,20.560 200.667,20.657 200.667 C 20.754 200.667,20.833 200.550,20.833 200.407 C 20.833 200.264,20.908 200.193,21.000 200.250 C 21.092 200.307,21.167 200.274,21.167 200.177 C 21.167 199.850,20.869 199.996,20.424 200.542 M18.371 203.260 C 18.423 203.311,18.304 203.522,18.107 203.728 C 17.485 204.382,16.840 205.244,16.836 205.427 C 16.835 205.524,16.678 205.770,16.488 205.974 C 16.015 206.482,14.466 208.999,14.623 209.005 C 14.693 209.008,14.619 209.087,14.458 209.180 C 13.987 209.455,13.584 210.333,13.930 210.333 C 14.104 210.333,14.168 210.243,14.106 210.083 C 14.053 209.945,14.102 209.833,14.215 209.833 C 14.432 209.833,14.928 209.169,14.869 208.958 C 14.849 208.890,14.908 208.833,15.000 208.833 C 15.092 208.833,15.167 208.751,15.167 208.651 C 15.167 208.550,15.322 208.250,15.511 207.984 C 15.701 207.718,15.795 207.498,15.720 207.496 C 15.645 207.494,15.771 207.338,16.000 207.148 C 16.229 206.959,16.304 206.852,16.167 206.910 C 16.029 206.968,16.085 206.890,16.292 206.737 C 16.498 206.584,16.667 206.356,16.667 206.230 C 16.667 206.103,16.742 206.000,16.833 206.000 C 16.925 206.000,16.983 205.944,16.961 205.875 C 16.940 205.806,17.071 205.579,17.253 205.370 C 17.435 205.160,17.572 204.935,17.558 204.870 C 17.504 204.612,17.860 204.164,18.034 204.271 C 18.145 204.340,18.171 204.309,18.099 204.192 C 18.034 204.087,18.041 203.998,18.115 203.995 C 18.429 203.983,18.871 203.167,18.563 203.167 C 18.406 203.167,18.320 203.209,18.371 203.260 M13.573 210.628 C 13.295 210.820,12.206 212.701,12.079 213.208 C 12.016 213.460,11.909 213.667,11.842 213.667 C 11.510 213.667,10.260 216.435,10.519 216.595 C 10.600 216.645,10.667 216.597,10.667 216.488 C 10.667 216.379,10.835 216.018,11.041 215.686 C 11.424 215.068,11.443 215.019,11.479 214.573 C 11.491 214.422,11.580 214.363,11.692 214.433 C 11.806 214.503,11.840 214.479,11.774 214.373 C 11.713 214.274,11.779 214.078,11.920 213.937 C 12.061 213.796,12.307 213.389,12.466 213.034 C 12.626 212.678,12.886 212.257,13.045 212.098 C 13.203 211.939,13.333 211.660,13.333 211.478 C 13.333 211.270,13.405 211.191,13.526 211.266 C 13.640 211.336,13.673 211.312,13.608 211.206 C 13.547 211.107,13.615 210.908,13.760 210.763 C 14.027 210.497,13.898 210.403,13.573 210.628 M10.002 216.995 C 9.903 217.181,9.880 217.334,9.952 217.336 C 10.024 217.337,10.007 217.394,9.913 217.461 C 9.467 217.781,8.896 219.122,8.984 219.642 C 9.008 219.780,8.944 219.819,8.819 219.741 C 8.689 219.661,8.658 219.685,8.734 219.808 C 8.799 219.913,8.779 220.000,8.688 220.000 C 8.525 220.000,8.300 220.493,8.377 220.679 C 8.399 220.731,8.288 220.902,8.131 221.059 C 7.974 221.216,7.776 221.586,7.690 221.881 C 7.605 222.175,7.413 222.698,7.265 223.042 C 7.117 223.385,7.053 223.668,7.123 223.669 C 7.193 223.671,7.138 223.744,7.000 223.833 C 6.778 223.977,6.778 223.996,7.000 224.003 C 7.196 224.008,7.187 224.047,6.957 224.181 C 6.664 224.351,6.225 225.228,6.098 225.897 C 6.041 226.197,5.374 227.981,4.826 229.300 C 4.624 229.786,4.621 230.333,4.820 230.333 C 4.904 230.333,5.025 230.090,5.089 229.792 C 5.152 229.494,5.352 228.922,5.532 228.521 C 5.713 228.120,5.887 227.595,5.919 227.354 C 5.951 227.114,5.992 226.898,6.009 226.875 C 6.027 226.852,6.057 226.777,6.076 226.708 C 6.096 226.640,6.211 226.358,6.333 226.083 C 6.455 225.808,6.562 225.471,6.570 225.333 C 6.577 225.196,6.750 224.850,6.953 224.566 C 7.156 224.281,7.371 223.737,7.432 223.357 C 7.493 222.978,7.608 222.667,7.688 222.667 C 7.768 222.667,7.833 222.512,7.833 222.322 C 7.833 222.133,8.030 221.720,8.270 221.406 C 8.510 221.091,8.654 220.833,8.590 220.833 C 8.525 220.833,8.631 220.577,8.825 220.264 C 9.018 219.951,9.159 219.633,9.138 219.556 C 9.072 219.312,9.350 218.667,9.521 218.667 C 9.612 218.667,9.643 218.597,9.590 218.512 C 9.538 218.426,9.571 218.309,9.665 218.251 C 9.939 218.082,10.483 216.843,10.326 216.746 C 10.248 216.697,10.102 216.809,10.002 216.995 M3.824 232.657 C 3.440 233.863,3.172 234.895,3.228 234.951 C 3.285 235.007,3.245 235.155,3.141 235.280 C 3.038 235.406,3.001 235.556,3.060 235.615 C 3.214 235.770,3.347 235.591,3.378 235.186 C 3.392 234.992,3.471 234.833,3.553 234.833 C 3.635 234.833,3.660 234.723,3.608 234.589 C 3.557 234.454,3.580 234.304,3.659 234.255 C 3.739 234.206,3.785 234.036,3.761 233.878 C 3.738 233.720,3.813 233.496,3.928 233.381 C 4.043 233.267,4.094 233.009,4.042 232.810 C 3.977 232.562,4.008 232.485,4.140 232.567 C 4.261 232.642,4.341 232.558,4.354 232.343 C 4.396 231.657,4.436 231.409,4.565 231.029 C 4.638 230.816,4.658 230.602,4.609 230.554 C 4.561 230.505,4.207 231.452,3.824 232.657 M163.955 236.620 C 164.250 236.657,164.775 236.658,165.121 236.622 C 165.467 236.586,165.225 236.555,164.583 236.555 C 163.942 236.554,163.659 236.583,163.955 236.620 M2.678 236.875 C 2.711 237.456,2.977 237.742,2.988 237.208 C 2.995 236.910,2.925 236.667,2.833 236.667 C 2.742 236.667,2.672 236.760,2.678 236.875 M95.428 236.815 C 95.376 236.900,95.184 236.930,95.002 236.882 C 94.820 236.835,94.539 236.853,94.377 236.923 C 94.216 236.994,93.952 237.035,93.792 237.015 C 93.631 236.995,93.500 237.041,93.500 237.116 C 93.500 237.192,93.277 237.263,93.005 237.274 C 92.732 237.285,92.376 237.352,92.213 237.422 C 91.893 237.561,91.643 237.637,91.248 237.718 C 91.110 237.747,90.904 237.870,90.790 237.993 C 90.676 238.115,90.665 238.170,90.764 238.115 C 90.864 238.060,91.538 237.892,92.263 237.742 C 92.988 237.592,93.656 237.422,93.749 237.364 C 93.841 237.306,94.041 237.279,94.194 237.304 C 94.346 237.329,94.518 237.273,94.575 237.180 C 94.633 237.087,94.893 237.054,95.153 237.106 C 95.617 237.198,95.993 236.951,95.681 236.759 C 95.594 236.705,95.480 236.730,95.428 236.815 M2.117 239.212 C 1.869 240.264,1.667 241.247,1.667 241.396 C 1.667 241.815,1.998 241.715,2.013 241.292 C 2.029 240.801,2.074 240.593,2.396 239.513 C 2.544 239.016,2.631 238.575,2.589 238.533 C 2.546 238.491,2.575 238.335,2.652 238.186 C 2.729 238.038,2.741 237.778,2.679 237.608 C 2.606 237.408,2.410 237.967,2.117 239.212 M88.994 238.389 C 88.585 238.566,88.225 238.776,88.194 238.855 C 88.164 238.935,88.043 239.000,87.925 239.000 C 87.808 239.000,87.517 239.153,87.278 239.341 C 87.040 239.528,86.824 239.673,86.798 239.663 C 86.520 239.557,85.145 240.321,84.778 240.784 C 84.611 240.996,84.406 241.128,84.323 241.077 C 84.094 240.936,83.500 241.312,83.500 241.599 C 83.500 241.739,83.430 241.810,83.344 241.756 C 83.258 241.703,83.126 241.764,83.052 241.891 C 82.978 242.018,82.673 242.246,82.375 242.398 C 82.077 242.551,81.832 242.767,81.831 242.879 C 81.830 242.992,81.568 243.253,81.248 243.460 C 80.928 243.667,80.667 243.915,80.667 244.011 C 80.667 244.108,80.580 244.133,80.474 244.067 C 80.364 243.999,80.327 244.021,80.387 244.119 C 80.445 244.212,80.346 244.421,80.167 244.583 C 79.988 244.745,79.878 244.937,79.923 245.010 C 79.968 245.083,79.854 245.191,79.669 245.249 C 79.484 245.308,79.333 245.430,79.333 245.521 C 79.333 245.612,79.259 245.641,79.169 245.585 C 79.071 245.524,79.048 245.599,79.114 245.769 C 79.188 245.963,79.161 246.016,79.028 245.934 C 78.911 245.862,78.833 245.918,78.833 246.073 C 78.833 246.216,78.758 246.333,78.667 246.333 C 78.575 246.333,78.500 246.438,78.500 246.566 C 78.500 246.693,78.387 246.841,78.250 246.894 C 78.112 246.946,78.000 247.109,78.000 247.255 C 78.000 247.415,77.923 247.472,77.805 247.399 C 77.674 247.318,77.645 247.370,77.716 247.556 C 77.785 247.735,77.738 247.833,77.583 247.833 C 77.449 247.833,77.382 247.934,77.431 248.062 C 77.480 248.187,77.404 248.335,77.262 248.389 C 77.110 248.447,77.047 248.595,77.107 248.751 C 77.172 248.920,77.126 248.996,76.979 248.965 C 76.845 248.937,76.760 249.042,76.775 249.219 C 76.789 249.386,76.758 249.480,76.706 249.428 C 76.599 249.321,75.995 250.260,75.919 250.654 C 75.891 250.798,75.668 251.367,75.424 251.917 C 74.819 253.281,74.726 253.507,74.530 254.083 C 74.372 254.550,74.322 255.167,74.442 255.167 C 74.583 255.167,75.000 253.906,74.924 253.708 C 74.876 253.584,74.900 253.522,74.978 253.570 C 75.055 253.617,75.298 253.115,75.517 252.453 C 75.737 251.791,75.959 251.213,76.010 251.167 C 76.270 250.934,77.339 248.810,77.260 248.683 C 77.210 248.601,77.271 248.496,77.397 248.447 C 77.522 248.399,78.053 247.753,78.576 247.011 C 79.099 246.269,80.139 245.051,80.888 244.306 C 81.637 243.560,82.229 242.881,82.204 242.796 C 82.179 242.711,82.236 242.690,82.330 242.748 C 82.425 242.807,82.547 242.737,82.602 242.594 C 82.657 242.451,82.807 242.333,82.934 242.333 C 83.062 242.333,83.167 242.258,83.167 242.167 C 83.167 242.075,83.253 242.000,83.358 242.000 C 83.463 242.000,83.869 241.737,84.261 241.417 C 84.652 241.096,85.015 240.833,85.067 240.833 C 85.118 240.833,85.666 240.524,86.283 240.147 C 86.899 239.769,87.670 239.364,87.994 239.246 C 88.923 238.908,90.500 238.179,90.500 238.087 C 90.500 237.919,89.718 238.075,88.994 238.389 M1.244 243.878 C 1.171 244.358,1.099 244.943,1.084 245.179 C 1.068 245.416,0.998 245.702,0.928 245.816 C 0.857 245.929,0.846 246.068,0.903 246.125 C 1.138 246.360,1.325 245.840,1.428 244.666 C 1.488 243.979,1.568 243.366,1.605 243.303 C 1.642 243.241,1.605 243.148,1.524 243.098 C 1.442 243.048,1.316 243.399,1.244 243.878 M0.755 246.969 C 0.696 247.319,0.617 247.938,0.579 248.344 C 0.541 248.751,0.461 249.252,0.402 249.458 C 0.336 249.688,0.367 249.833,0.481 249.833 C 0.583 249.833,0.676 249.777,0.688 249.708 C 0.749 249.352,0.818 248.849,0.890 248.250 C 0.933 247.883,1.022 247.302,1.086 246.958 C 1.160 246.567,1.140 246.333,1.033 246.333 C 0.939 246.333,0.814 246.620,0.755 246.969 M0.402 250.417 C 0.462 250.657,0.434 250.833,0.337 250.833 C 0.243 250.833,0.167 251.058,0.167 251.333 C 0.167 251.608,0.237 251.833,0.323 251.833 C 0.409 251.833,0.480 251.702,0.480 251.542 C 0.480 251.381,0.517 250.969,0.561 250.625 C 0.609 250.254,0.572 250.000,0.469 250.000 C 0.369 250.000,0.341 250.174,0.402 250.417 M0.207 252.208 C 0.199 252.323,0.159 252.853,0.118 253.386 C 0.077 253.920,0.099 254.295,0.167 254.220 C 0.346 254.022,0.520 252.000,0.359 252.000 C 0.284 252.000,0.216 252.094,0.207 252.208 M0.059 256.083 C 0.059 256.908,0.087 257.267,0.122 256.880 C 0.157 256.493,0.157 255.818,0.123 255.380 C 0.088 254.942,0.060 255.258,0.059 256.083 M74.167 255.653 C 74.167 255.829,74.124 256.110,74.071 256.278 C 73.994 256.522,74.007 256.533,74.134 256.333 C 74.415 255.891,74.533 255.333,74.345 255.333 C 74.247 255.333,74.167 255.477,74.167 255.653 M73.944 256.778 C 73.772 256.950,73.814 257.865,73.989 257.757 C 74.074 257.704,74.138 257.437,74.130 257.164 C 74.115 256.624,74.109 256.613,73.944 256.778 M73.718 258.208 C 73.644 258.323,73.565 273.754,73.543 292.500 C 73.516 314.839,73.558 326.497,73.666 326.333 C 73.771 326.172,73.830 314.213,73.830 292.583 C 73.831 274.158,73.841 259.046,73.852 259.000 C 74.026 258.265,73.955 257.843,73.718 258.208 M0.077 278.250 C 0.077 282.558,0.098 284.345,0.125 282.220 C 0.151 280.095,0.151 276.570,0.125 274.386 C 0.099 272.203,0.077 273.942,0.077 278.250 M0.000 326.333 C 0.000 326.444,11.528 326.500,34.250 326.500 C 56.972 326.500,68.500 326.444,68.500 326.333 C 68.500 326.223,56.972 326.167,34.250 326.167 C 11.528 326.167,0.000 326.223,0.000 326.333 " stroke="none" fill="#d44ca4" fill-rule="evenodd"></path><path id="path4" d="M92.503 163.311 C 92.501 163.464,92.363 163.513,92.083 163.459 C 91.854 163.415,91.667 163.444,91.667 163.523 C 91.667 163.602,91.587 163.667,91.490 163.667 C 91.393 163.667,91.360 163.592,91.417 163.500 C 91.473 163.408,91.446 163.333,91.357 163.333 C 91.268 163.333,91.156 163.427,91.110 163.542 C 91.046 163.699,90.981 163.688,90.846 163.500 C 90.729 163.337,90.623 163.310,90.542 163.423 C 90.473 163.518,89.838 163.591,89.125 163.585 C 88.415 163.580,87.833 163.639,87.833 163.716 C 87.833 163.794,87.477 163.843,87.042 163.825 C 86.606 163.807,86.138 163.833,86.000 163.884 C 85.862 163.935,85.359 164.014,84.880 164.059 C 84.402 164.104,83.948 164.179,83.871 164.227 C 83.793 164.275,83.322 164.361,82.823 164.418 C 82.325 164.475,81.767 164.543,81.583 164.569 C 81.400 164.595,81.195 164.534,81.128 164.433 C 81.052 164.320,81.004 164.359,81.003 164.536 C 81.001 164.723,80.912 164.789,80.748 164.726 C 80.609 164.673,80.403 164.703,80.290 164.792 C 80.176 164.881,79.971 164.962,79.833 164.972 C 78.396 165.070,77.669 165.188,76.716 165.477 C 76.422 165.566,75.972 165.616,75.716 165.587 C 75.460 165.559,75.200 165.616,75.139 165.714 C 74.974 165.978,74.287 166.053,74.419 165.792 C 74.477 165.677,74.418 165.713,74.288 165.872 C 74.157 166.031,74.002 166.113,73.942 166.053 C 73.882 165.993,73.833 166.019,73.833 166.111 C 73.833 166.203,73.740 166.281,73.625 166.286 C 73.510 166.290,73.273 166.353,73.098 166.425 C 72.896 166.508,72.817 166.495,72.882 166.389 C 72.939 166.297,72.883 166.222,72.759 166.222 C 72.634 166.222,72.565 166.310,72.607 166.417 C 72.677 166.600,72.322 166.668,70.974 166.730 C 70.731 166.741,70.562 166.799,70.599 166.859 C 70.663 166.962,70.128 167.196,69.134 167.501 C 68.836 167.592,68.664 167.575,68.622 167.449 C 68.585 167.339,68.430 167.411,68.248 167.624 C 68.027 167.882,67.877 167.939,67.733 167.819 C 67.593 167.703,67.491 167.713,67.406 167.851 C 67.322 167.987,67.352 168.008,67.500 167.917 C 67.648 167.826,67.678 167.847,67.594 167.982 C 67.504 168.129,67.411 168.134,67.250 168.000 C 67.095 167.871,66.997 167.870,66.920 167.995 C 66.860 168.092,66.729 168.122,66.629 168.060 C 66.528 167.998,66.496 168.025,66.556 168.122 C 66.615 168.217,66.514 168.334,66.332 168.382 C 66.149 168.430,65.958 168.401,65.907 168.318 C 65.743 168.052,65.506 168.156,65.617 168.446 C 65.697 168.653,65.656 168.698,65.458 168.622 C 65.311 168.566,65.101 168.628,64.992 168.760 C 64.882 168.892,64.708 169.000,64.605 169.001 C 64.501 169.002,64.203 169.114,63.941 169.250 C 63.679 169.387,63.405 169.461,63.330 169.415 C 63.256 169.369,63.157 169.425,63.111 169.541 C 63.046 169.702,63.023 169.703,63.013 169.545 C 63.005 169.413,62.719 169.497,62.208 169.782 C 61.773 170.025,61.397 170.210,61.373 170.192 C 61.349 170.174,61.115 170.271,60.853 170.407 C 60.590 170.542,60.329 170.606,60.271 170.549 C 60.214 170.491,60.167 170.541,60.167 170.658 C 60.167 170.790,60.039 170.839,59.833 170.785 C 59.650 170.737,59.540 170.764,59.590 170.844 C 59.640 170.924,59.471 171.038,59.215 171.096 C 58.959 171.154,58.244 171.448,57.627 171.749 C 57.009 172.050,56.546 172.211,56.597 172.106 C 56.649 172.002,56.577 172.057,56.437 172.229 C 56.287 172.414,56.073 172.500,55.916 172.439 C 55.769 172.383,55.691 172.404,55.741 172.486 C 55.857 172.673,54.856 173.034,54.622 172.889 C 54.526 172.830,54.497 172.861,54.557 172.957 C 54.659 173.123,54.224 173.416,53.958 173.360 C 53.890 173.345,53.833 173.396,53.833 173.473 C 53.833 173.653,52.981 174.069,52.708 174.022 C 52.594 174.002,52.500 174.076,52.500 174.187 C 52.500 174.298,52.454 174.342,52.397 174.286 C 52.340 174.229,52.189 174.287,52.062 174.415 C 51.934 174.542,51.685 174.619,51.508 174.585 C 51.292 174.543,51.214 174.597,51.272 174.746 C 51.322 174.876,51.205 175.018,50.994 175.085 C 50.794 175.149,50.508 175.306,50.357 175.435 C 50.207 175.564,50.008 175.676,49.917 175.684 C 49.825 175.693,49.600 175.783,49.417 175.886 C 49.233 175.988,49.033 176.074,48.972 176.077 C 48.910 176.081,48.663 176.254,48.423 176.464 C 48.182 176.673,47.913 176.799,47.825 176.745 C 47.737 176.690,47.617 176.769,47.559 176.919 C 47.476 177.135,46.736 177.566,46.542 177.512 C 46.519 177.505,46.344 177.656,46.154 177.846 C 45.963 178.037,45.705 178.153,45.579 178.105 C 45.423 178.045,45.383 178.102,45.453 178.286 C 45.520 178.458,45.490 178.514,45.372 178.441 C 45.270 178.378,45.126 178.423,45.052 178.542 C 44.875 178.824,44.017 179.197,43.823 179.077 C 43.739 179.025,43.715 179.099,43.770 179.241 C 43.836 179.414,43.773 179.500,43.578 179.500 C 43.418 179.500,43.179 179.631,43.048 179.792 C 42.916 179.952,42.863 179.978,42.930 179.849 C 43.010 179.695,42.986 179.656,42.859 179.734 C 42.753 179.799,42.667 179.969,42.667 180.111 C 42.667 180.276,42.573 180.333,42.408 180.270 C 42.266 180.215,42.190 180.237,42.240 180.318 C 42.346 180.488,41.857 180.737,41.525 180.682 C 41.401 180.661,41.331 180.706,41.369 180.781 C 41.455 180.951,40.723 181.667,40.594 181.539 C 40.542 181.487,40.500 181.527,40.500 181.628 C 40.500 181.728,40.358 181.856,40.184 181.911 C 40.009 181.967,39.676 182.203,39.441 182.437 C 39.207 182.671,38.937 182.814,38.840 182.754 C 38.743 182.694,38.600 182.819,38.521 183.031 C 38.443 183.243,38.331 183.398,38.273 183.375 C 37.924 183.238,37.448 183.348,37.625 183.525 C 37.769 183.669,37.664 183.833,37.200 184.190 C 36.861 184.450,36.507 184.726,36.413 184.802 C 36.319 184.879,36.160 184.915,36.059 184.881 C 35.958 184.847,35.839 184.962,35.793 185.136 C 35.747 185.310,35.483 185.553,35.206 185.676 C 34.875 185.822,34.734 185.983,34.796 186.143 C 34.857 186.301,34.821 186.345,34.695 186.268 C 34.587 186.201,34.500 186.238,34.500 186.351 C 34.500 186.464,34.450 186.506,34.390 186.446 C 34.329 186.385,34.174 186.486,34.045 186.671 C 33.916 186.855,33.729 186.955,33.630 186.894 C 33.530 186.832,33.495 186.857,33.552 186.949 C 33.609 187.041,33.470 187.277,33.244 187.474 C 33.018 187.670,32.833 187.784,32.833 187.726 C 32.833 187.668,32.571 187.898,32.251 188.237 C 31.931 188.577,31.594 188.808,31.503 188.752 C 31.410 188.694,31.378 188.755,31.430 188.892 C 31.488 189.042,31.343 189.240,31.048 189.415 C 30.787 189.569,30.449 189.911,30.298 190.174 C 30.147 190.438,29.737 190.790,29.387 190.957 C 29.002 191.141,28.767 191.363,28.792 191.518 C 28.815 191.659,28.642 191.955,28.408 192.175 C 28.028 192.532,27.993 192.540,28.085 192.246 C 28.141 192.065,28.068 192.123,27.922 192.375 C 27.776 192.627,27.583 192.833,27.495 192.833 C 27.406 192.833,27.333 192.933,27.333 193.054 C 27.333 193.343,26.567 194.061,26.381 193.946 C 26.302 193.897,26.140 194.077,26.021 194.346 C 25.900 194.619,25.726 194.787,25.627 194.725 C 25.529 194.665,25.495 194.691,25.552 194.783 C 25.609 194.875,25.540 195.093,25.399 195.267 C 25.258 195.441,25.182 195.502,25.230 195.403 C 25.279 195.303,25.217 195.222,25.092 195.222 C 24.967 195.222,24.898 195.307,24.937 195.410 C 24.977 195.514,24.820 195.763,24.588 195.965 C 24.356 196.166,24.166 196.275,24.164 196.207 C 24.163 196.139,24.092 196.194,24.006 196.329 C 23.904 196.491,23.919 196.619,24.050 196.704 C 24.189 196.794,24.148 196.863,23.917 196.930 C 23.733 196.983,23.432 197.264,23.247 197.555 C 23.061 197.846,22.818 198.093,22.705 198.104 C 22.287 198.147,22.255 198.175,22.472 198.313 C 22.645 198.422,22.606 198.524,22.297 198.769 C 22.078 198.942,21.846 199.222,21.782 199.391 C 21.718 199.560,21.521 199.736,21.344 199.782 C 21.135 199.837,21.058 199.957,21.123 200.127 C 21.189 200.299,21.157 200.347,21.028 200.268 C 20.911 200.195,20.833 200.251,20.833 200.407 C 20.833 200.550,20.754 200.667,20.657 200.667 C 20.560 200.667,20.530 200.747,20.590 200.845 C 20.651 200.942,20.544 201.063,20.352 201.113 C 20.160 201.164,20.045 201.272,20.096 201.353 C 20.146 201.435,20.071 201.547,19.927 201.602 C 19.784 201.657,19.664 201.826,19.661 201.976 C 19.653 202.373,19.081 203.000,18.723 203.003 C 18.514 203.004,18.481 203.046,18.620 203.134 C 18.763 203.225,18.625 203.473,18.156 203.971 C 17.789 204.361,17.526 204.740,17.572 204.815 C 17.704 205.029,17.002 205.687,16.782 205.555 C 16.666 205.485,16.678 205.553,16.812 205.718 C 16.961 205.902,16.976 206.000,16.854 206.000 C 16.751 206.000,16.667 206.103,16.667 206.230 C 16.667 206.356,16.498 206.584,16.292 206.737 C 16.085 206.890,16.029 206.968,16.167 206.910 C 16.304 206.852,16.229 206.959,16.000 207.148 C 15.771 207.338,15.645 207.494,15.720 207.496 C 15.795 207.498,15.701 207.718,15.511 207.984 C 15.322 208.250,15.167 208.550,15.167 208.651 C 15.167 208.751,15.092 208.833,15.000 208.833 C 14.908 208.833,14.849 208.890,14.869 208.958 C 14.928 209.169,14.432 209.833,14.215 209.833 C 14.102 209.833,14.053 209.945,14.106 210.083 C 14.170 210.248,14.097 210.338,13.893 210.346 C 13.723 210.354,13.675 210.397,13.787 210.442 C 13.930 210.500,13.893 210.629,13.662 210.877 C 13.481 211.071,13.333 211.360,13.333 211.520 C 13.333 211.679,13.203 211.939,13.045 212.098 C 12.886 212.257,12.628 212.673,12.471 213.023 C 12.314 213.373,12.032 213.826,11.843 214.028 C 11.654 214.231,11.491 214.495,11.479 214.615 C 11.440 215.021,11.415 215.082,11.041 215.686 C 10.835 216.018,10.667 216.379,10.667 216.488 C 10.667 216.597,10.587 216.637,10.489 216.576 C 10.391 216.516,10.328 216.568,10.349 216.692 C 10.399 216.992,10.042 217.845,9.713 218.208 C 9.567 218.369,9.516 218.501,9.599 218.503 C 9.682 218.504,9.671 218.560,9.575 218.628 C 9.478 218.695,9.228 219.050,9.019 219.417 C 8.809 219.783,8.757 219.938,8.902 219.760 C 9.279 219.298,9.229 219.610,8.820 220.272 C 8.629 220.581,8.525 220.833,8.590 220.833 C 8.654 220.833,8.510 221.091,8.270 221.406 C 8.030 221.720,7.833 222.133,7.833 222.322 C 7.833 222.512,7.768 222.667,7.688 222.667 C 7.608 222.667,7.493 222.978,7.432 223.357 C 7.371 223.737,7.156 224.281,6.953 224.566 C 6.750 224.850,6.577 225.196,6.570 225.333 C 6.562 225.471,6.455 225.808,6.333 226.083 C 6.211 226.358,6.096 226.640,6.076 226.708 C 6.057 226.777,6.027 226.852,6.009 226.875 C 5.992 226.898,5.951 227.114,5.919 227.354 C 5.887 227.595,5.713 228.120,5.532 228.521 C 5.352 228.922,5.151 229.499,5.086 229.803 C 5.013 230.149,4.890 230.327,4.759 230.276 C 4.625 230.225,4.545 230.355,4.536 230.640 C 4.529 230.884,4.488 231.308,4.445 231.583 C 4.402 231.858,4.359 232.219,4.350 232.385 C 4.340 232.569,4.258 232.640,4.140 232.567 C 4.008 232.485,3.977 232.562,4.042 232.810 C 4.098 233.022,4.034 233.275,3.890 233.420 C 3.754 233.555,3.695 233.667,3.759 233.667 C 3.822 233.667,3.771 233.794,3.645 233.949 C 3.448 234.192,3.451 234.210,3.667 234.083 C 3.874 233.961,3.882 233.979,3.710 234.192 C 3.596 234.332,3.550 234.495,3.608 234.553 C 3.666 234.611,3.568 234.791,3.391 234.954 C 3.213 235.117,3.159 235.189,3.271 235.115 C 3.415 235.020,3.448 235.080,3.384 235.324 C 3.335 235.512,3.235 235.667,3.162 235.667 C 3.089 235.667,3.051 235.798,3.076 235.958 C 3.102 236.119,3.080 236.324,3.028 236.414 C 2.975 236.505,2.946 236.842,2.963 237.164 C 2.988 237.641,2.965 237.688,2.839 237.417 C 2.704 237.127,2.685 237.148,2.688 237.583 C 2.694 238.314,2.537 239.187,2.258 239.977 C 1.986 240.750,2.000 240.678,2.000 241.250 C 2.000 241.535,1.908 241.667,1.708 241.669 C 1.459 241.671,1.453 241.695,1.667 241.836 C 1.889 241.982,1.889 242.018,1.667 242.164 C 1.485 242.284,1.476 242.329,1.635 242.331 C 1.756 242.332,1.801 242.418,1.735 242.524 C 1.611 242.725,1.588 242.889,1.423 244.750 C 1.353 245.547,1.233 245.983,1.045 246.125 C 0.858 246.266,0.839 246.333,0.987 246.333 C 1.148 246.333,1.172 246.493,1.081 246.958 C 1.014 247.302,0.942 247.771,0.922 248.000 C 0.902 248.229,0.874 248.552,0.859 248.718 C 0.843 248.907,0.756 248.976,0.625 248.902 C 0.458 248.808,0.458 248.829,0.625 249.009 C 0.897 249.302,0.888 249.422,0.571 249.738 C 0.427 249.882,0.374 250.000,0.452 250.000 C 0.530 250.000,0.610 250.206,0.629 250.458 C 0.654 250.788,0.621 250.850,0.512 250.679 C 0.411 250.521,0.381 250.658,0.422 251.092 C 0.457 251.476,0.401 251.793,0.283 251.868 C 0.131 251.964,0.134 251.996,0.293 251.997 C 0.499 252.000,0.444 253.530,0.216 254.167 C 0.167 254.304,0.094 270.560,0.054 290.292 L -0.018 326.167 34.241 326.167 C 56.969 326.167,68.500 326.223,68.500 326.333 C 68.500 326.437,69.444 326.500,71.000 326.500 L 73.500 326.500 73.500 292.927 C 73.500 273.043,73.562 259.315,73.651 259.260 C 73.734 259.208,73.763 259.018,73.716 258.836 C 73.668 258.654,73.686 258.373,73.755 258.211 C 73.824 258.049,73.865 257.712,73.845 257.462 C 73.825 257.212,73.866 256.915,73.936 256.802 C 74.006 256.688,74.091 256.332,74.124 256.011 C 74.157 255.689,74.244 255.386,74.318 255.338 C 74.392 255.290,74.428 255.100,74.398 254.917 C 74.325 254.463,74.489 253.974,74.677 254.090 C 74.761 254.141,74.785 254.067,74.730 253.924 C 74.675 253.781,74.741 253.421,74.877 253.124 C 75.013 252.826,75.259 252.268,75.424 251.883 C 75.589 251.498,75.775 251.214,75.839 251.253 C 75.902 251.292,75.933 251.143,75.909 250.922 C 75.885 250.701,75.976 250.385,76.111 250.219 C 76.247 250.053,76.303 250.022,76.237 250.151 C 76.159 250.301,76.182 250.344,76.300 250.270 C 76.402 250.207,76.438 250.034,76.381 249.884 C 76.312 249.703,76.342 249.652,76.470 249.731 C 76.600 249.812,76.627 249.757,76.553 249.565 C 76.484 249.385,76.509 249.319,76.620 249.388 C 76.720 249.449,76.786 249.371,76.773 249.207 C 76.760 249.047,76.837 248.933,76.943 248.953 C 77.048 248.973,77.179 248.875,77.232 248.736 C 77.296 248.571,77.258 248.519,77.123 248.587 C 77.010 248.644,77.055 248.578,77.225 248.440 C 77.395 248.302,77.484 248.109,77.424 248.011 C 77.363 247.913,77.428 247.833,77.568 247.833 C 77.737 247.833,77.787 247.740,77.716 247.556 C 77.645 247.370,77.674 247.318,77.805 247.399 C 77.923 247.472,78.000 247.415,78.000 247.255 C 78.000 247.109,78.112 246.946,78.250 246.894 C 78.387 246.841,78.500 246.693,78.500 246.566 C 78.500 246.438,78.575 246.333,78.667 246.333 C 78.758 246.333,78.833 246.216,78.833 246.073 C 78.833 245.918,78.911 245.862,79.028 245.934 C 79.161 246.016,79.188 245.963,79.114 245.769 C 79.048 245.599,79.071 245.524,79.169 245.585 C 79.259 245.641,79.333 245.612,79.333 245.521 C 79.333 245.430,79.484 245.308,79.669 245.249 C 79.854 245.191,79.968 245.083,79.923 245.010 C 79.878 244.937,79.988 244.745,80.167 244.583 C 80.346 244.421,80.444 244.205,80.386 244.103 C 80.328 244.000,80.334 243.965,80.400 244.024 C 80.466 244.083,80.704 243.948,80.928 243.723 C 81.153 243.499,81.422 243.369,81.527 243.433 C 81.645 243.506,81.673 243.478,81.599 243.359 C 81.534 243.253,81.560 243.167,81.657 243.167 C 81.754 243.167,81.833 243.057,81.833 242.923 C 81.833 242.641,82.372 242.308,82.696 242.390 C 82.817 242.420,82.865 242.415,82.802 242.379 C 82.739 242.342,82.809 242.171,82.957 241.998 C 83.105 241.825,83.288 241.722,83.363 241.768 C 83.438 241.815,83.500 241.739,83.500 241.599 C 83.500 241.319,84.092 240.934,84.313 241.071 C 84.390 241.119,84.657 240.929,84.906 240.649 C 85.159 240.366,85.461 240.180,85.591 240.230 C 85.718 240.279,85.874 240.235,85.937 240.134 C 86.011 240.014,85.975 239.996,85.833 240.083 C 85.689 240.173,85.655 240.153,85.734 240.026 C 85.799 239.920,85.984 239.833,86.143 239.833 C 86.303 239.833,86.523 239.743,86.633 239.633 C 86.743 239.523,86.833 239.491,86.833 239.562 C 86.833 239.633,87.031 239.535,87.272 239.345 C 87.514 239.155,87.814 239.000,87.939 239.000 C 88.064 239.000,88.167 238.935,88.167 238.856 C 88.167 238.664,89.638 238.093,90.172 238.077 C 90.404 238.070,90.704 237.996,90.839 237.912 C 90.973 237.828,91.177 237.739,91.292 237.713 C 91.668 237.629,91.913 237.552,92.213 237.422 C 92.376 237.352,92.732 237.285,93.005 237.274 C 93.277 237.263,93.500 237.196,93.500 237.127 C 93.500 237.057,93.617 237.000,93.760 237.000 C 93.922 237.000,93.974 237.079,93.898 237.208 C 93.831 237.323,93.936 237.276,94.132 237.104 C 94.360 236.905,94.642 236.822,94.915 236.874 C 95.149 236.919,95.384 236.887,95.435 236.803 C 95.489 236.716,95.631 236.734,95.765 236.846 C 95.932 236.984,96.000 236.987,96.000 236.855 C 96.000 236.720,105.017 236.669,129.529 236.667 C 147.969 236.666,163.064 236.647,163.073 236.624 C 163.082 236.602,163.062 220.100,163.030 199.954 L 162.971 163.325 128.817 163.338 C 110.033 163.345,94.578 163.298,94.473 163.233 C 94.352 163.159,94.328 163.189,94.406 163.317 C 94.568 163.579,92.806 163.526,92.628 163.263 C 92.547 163.145,92.504 163.162,92.503 163.311 " stroke="none" fill="#d454a2" fill-rule="evenodd"></path></g></svg>