<?xml version="1.0" encoding="UTF-8"?>
<svg xmlns="http://www.w3.org/2000/svg" xmlns:xlink="http://www.w3.org/1999/xlink" width="50px" height="50px" viewBox="0 0 50 50" version="1.1">
<g id="surface1">
<path style=" stroke:none;fill-rule:nonzero;fill:#A782F3;fill-opacity:1;" d="M 25 50 C 38.808594 50 50 38.808594 50 25 C 50 11.191406 38.808594 0 25 0 C 11.191406 0 0 11.191406 0 25 C 0 38.808594 11.191406 50 25 50 Z M 25 3.125 C 37.0625 3.125 46.875 12.9375 46.875 25 C 46.875 37.0625 37.0625 46.875 25 46.875 C 12.9375 46.875 3.125 37.0625 3.125 25 C 3.125 12.9375 12.9375 3.125 25 3.125 Z M 25 3.125 "/>
<path style=" stroke:none;fill-rule:nonzero;fill:#A782F3;fill-opacity:1;" d="M 14.03125 31.089844 C 15.628906 31.089844 17.085938 30.46875 18.175781 29.457031 L 26.148438 33.199219 C 26.085938 33.542969 26.054688 33.890625 26.054688 34.25 C 26.054688 37.609375 28.789062 40.339844 32.144531 40.339844 C 35.503906 40.339844 38.238281 37.609375 38.238281 34.25 C 38.238281 30.890625 35.503906 28.15625 32.144531 28.15625 C 30.261719 28.15625 28.578125 29.015625 27.457031 30.363281 L 19.851562 26.792969 C 20.027344 26.226562 20.121094 25.625 20.121094 25 C 20.121094 24.496094 20.058594 24.003906 19.941406 23.535156 L 27.691406 19.898438 C 28.804688 21.09375 30.390625 21.84375 32.144531 21.84375 C 35.503906 21.84375 38.238281 19.109375 38.238281 15.75 C 38.238281 12.390625 35.503906 9.660156 32.144531 9.660156 C 28.789062 9.660156 26.054688 12.390625 26.054688 15.75 C 26.054688 16.230469 26.113281 16.691406 26.214844 17.140625 L 18.429688 20.792969 C 17.320312 19.632812 15.757812 18.90625 14.03125 18.90625 C 10.671875 18.90625 7.9375 21.640625 7.9375 25 C 7.9375 28.359375 10.671875 31.089844 14.03125 31.089844 Z M 32.144531 31.28125 C 33.78125 31.28125 35.113281 32.613281 35.113281 34.25 C 35.113281 35.886719 33.78125 37.214844 32.144531 37.214844 C 30.511719 37.214844 29.179688 35.886719 29.179688 34.25 C 29.179688 32.613281 30.511719 31.28125 32.144531 31.28125 Z M 32.144531 12.785156 C 33.78125 12.785156 35.113281 14.117188 35.113281 15.75 C 35.113281 17.386719 33.78125 18.71875 32.144531 18.71875 C 30.511719 18.71875 29.179688 17.386719 29.179688 15.75 C 29.179688 14.117188 30.511719 12.785156 32.144531 12.785156 Z M 14.03125 22.03125 C 15.667969 22.03125 16.996094 23.363281 16.996094 25 C 16.996094 26.636719 15.667969 27.964844 14.03125 27.964844 C 12.394531 27.964844 11.0625 26.636719 11.0625 25 C 11.0625 23.363281 12.394531 22.03125 14.03125 22.03125 Z M 14.03125 22.03125 "/>
</g>
</svg>
