<svg width="300px" height="267px" viewBox="0 0 300 267" version="1.1" xmlns="http://www.w3.org/2000/svg" xmlns:xlink="http://www.w3.org/1999/xlink">
    <g id="Page-1" stroke="none" stroke-width="1" fill="none" fill-rule="evenodd">
        <g id="Group-2">
            <line x1="116.999996" y1="71.9999711" x2="125.999996" y2="80.9999711" id="Path" stroke="#FF94EE" stroke-width="5.42149" stroke-linecap="round" stroke-linejoin="round"></line>
            <line x1="149.504453" y1="60.214361" x2="151.495539" y2="72.7855813" id="Path" stroke="#FF94EE" stroke-width="5.42149" stroke-linecap="round" stroke-linejoin="round"></line>
            <line x1="184.289773" y1="60.7800809" x2="178.710219" y2="72.2198614" id="Path" stroke="#FF94EE" stroke-width="5.42149" stroke-linecap="round" stroke-linejoin="round"></line>
            <g id="Group-13" transform="translate(161.803183, 122.419374) rotate(-2.000000) translate(-161.803183, -122.419374) translate(111.789497, 83.940283)">
                <g id="Group-3" transform="translate(9.395675, 0.000000)">
                    <g id="Clip-2"></g>
                    <path d="M71.2445082,4.50523645 C72.5949913,4.34470918 73.8141775,5.36624635 73.9666777,6.78695561 L74.1795256,8.76822266 L77.4896771,8.76822266 C78.014865,8.76822266 78.5212961,8.85063238 79,9 L78.5074325,4.41939299 C78.2130337,1.68699567 75.870076,-0.277961122 73.2734949,0.031933767 L0,8.76822266 L35.4909571,8.76822266 L71.2445082,4.50523645 Z" id="Fill-1" fill="#5956A4" mask="url(#mask-2)"></path>
                </g>
                <path d="M80.4511031,4.55569198 L45.3338839,8.54002844 L83.3338839,8.54002844 L83.1240232,6.68826675 C82.9742371,5.36042204 81.7775507,4.40485524 80.4511031,4.55569198" id="Fill-4" fill="#8D67AC"></path>
                <path d="M85.6918327,11.9581833 C90.2795844,11.9581833 94,15.6161365 94,20.126864 L94,20.126864 L94,33.9427703 L78.6536934,33.9427703 C75.7370311,33.9427703 73.3722358,36.2670613 73.3722358,39.1347555 L73.3722358,39.1347555 L73.3722358,49.7808097 C73.3722358,52.6493054 75.7370311,54.9735964 78.6536934,54.9735964 L78.6536934,54.9735964 L94,54.9735964 L94,68.7895027 C94,73.3010317 90.2795844,76.9581833 85.6918327,76.9581833 L85.6918327,76.9581833 L8.30816727,76.9581833 C3.7196004,76.9581833 1.13686838e-13,73.3010317 1.13686838e-13,68.7895027 L1.13686838e-13,68.7895027 L1.13686838e-13,20.126864 C1.13686838e-13,15.6161365 3.7196004,11.9581833 8.30816727,11.9581833 L8.30816727,11.9581833 Z M95.2738659,36.3899765 C97.8992057,36.3899765 100.027373,38.5704326 100.027373,41.2602766 L100.027373,47.5196763 C100.027373,50.2095203 97.8992057,52.3899765 95.2738659,52.3899765 L80.7808804,52.3899765 C78.1555406,52.3899765 76.0273732,50.2095203 76.0273732,47.5196763 L76.0273732,41.2602766 C76.0273732,38.5704326 78.1555406,36.3899765 80.7808804,36.3899765 L95.2738659,36.3899765 Z" id="Fill-7" fill="#5956A4"></path>
                <path d="M88.030419,44.7151055 C88.030419,47.2009549 86.015895,49.215479 83.5307925,49.215479 C81.044943,49.215479 79.030419,47.2009549 79.030419,44.7151055 C79.030419,42.230003 81.044943,40.215479 83.5307925,40.215479 C86.015895,40.215479 88.030419,42.230003 88.030419,44.7151055" id="Fill-11" fill="#42AAE0"></path>
            </g>
            <g id="Group" fill-rule="nonzero">
                <path d="M236.110996,247.708971 C178.220996,282.974971 98.606296,265.285971 53.070696,231.560971 C4.88511603,195.872971 -20.584504,121.949971 20.717296,65.2320711 C73.179996,-6.81252885 102.078996,23.3637711 186.547996,4.26882115 C360.723996,-35.1052289 298.213996,209.875971 236.110996,247.708971 Z" id="Path" fill-opacity="0.15" fill="#724DF8"></path>
                <ellipse id="Oval" fill="#454493" cx="160.454996" cy="199.974971" rx="71.157" ry="18.9752"></ellipse>
                <circle id="Oval" fill="#1EF7E7" cx="99.499996" cy="56.4999711" r="2.5"></circle>
                <circle id="Oval" fill="#1EF7E7" cx="69.999996" cy="210.999971" r="4"></circle>
                <circle id="Oval" fill="#1EF7E7" cx="270.999996" cy="121.999971" r="3"></circle>
            </g>
            <path d="M73.8329763,128.971103 C74.6142263,128.971103 75.0790701,128.564853 75.2275076,127.752353 C75.3134451,127.36954 75.3778982,127.101962 75.420867,126.949618 C75.4638357,126.797274 75.5243826,126.644931 75.6025076,126.492587 C75.6806326,126.340243 75.7997732,126.172274 75.9599295,125.988681 C76.1200857,125.805087 76.3329763,125.592196 76.5986013,125.350009 C77.5595388,124.490634 78.2255545,123.879306 78.5966482,123.516024 C78.967742,123.152743 79.2880545,122.721103 79.5575857,122.221103 C79.827117,121.721103 79.9618826,121.139071 79.9618826,120.475009 C79.9618826,119.631259 79.7255545,118.850009 79.2528982,118.131259 C78.780242,117.412509 78.1103201,116.844149 77.2431326,116.426181 C76.3759451,116.008212 75.3759451,115.799228 74.2431326,115.799228 C73.0243826,115.799228 71.9579763,116.049228 71.0439138,116.549228 C70.1298513,117.049228 69.4345388,117.680087 68.9579763,118.441806 C68.4814138,119.203524 68.2431326,119.955478 68.2431326,120.697665 C68.2431326,121.05704 68.3935232,121.391024 68.6943045,121.699618 C68.9950857,122.008212 69.3642263,122.162509 69.8017263,122.162509 C70.5439138,122.162509 71.0478201,121.721103 71.3134451,120.83829 C71.5946951,119.99454 71.9384451,119.355868 72.3446951,118.922274 C72.7509451,118.488681 73.3837576,118.271884 74.2431326,118.271884 C74.9775076,118.271884 75.577117,118.486728 76.0419607,118.916415 C76.5068045,119.346103 76.7392263,119.873446 76.7392263,120.498446 C76.7392263,120.818759 76.6630545,121.115634 76.5107107,121.389071 C76.358367,121.662509 76.170867,121.910556 75.9482107,122.133212 C75.7255545,122.355868 75.3642263,122.685946 74.8642263,123.123446 C74.2939138,123.623446 73.8407888,124.055087 73.5048513,124.418368 C73.1689138,124.781649 72.8993826,125.203524 72.6962576,125.683993 C72.4931326,126.164462 72.3915701,126.732821 72.3915701,127.389071 C72.3915701,127.912509 72.530242,128.30704 72.8075857,128.572665 C73.0849295,128.83829 73.4267263,128.971103 73.8329763,128.971103 Z M73.9618826,133.541415 C74.4228201,133.541415 74.8290701,133.385165 75.1806326,133.072665 C75.5321951,132.760165 75.7079763,132.330478 75.7079763,131.783603 C75.7079763,131.291415 75.5400076,130.877353 75.2040701,130.541415 C74.8681326,130.205478 74.4540701,130.037509 73.9618826,130.037509 C73.4618826,130.037509 73.0400076,130.205478 72.6962576,130.541415 C72.3525076,130.877353 72.1806326,131.291415 72.1806326,131.783603 C72.1806326,132.33829 72.358367,132.769931 72.7138357,133.078524 C73.0693045,133.387118 73.4853201,133.541415 73.9618826,133.541415 Z" id="?" fill="#FF94EE" fill-rule="nonzero" transform="translate(74.102508, 124.670321) rotate(-28.000000) translate(-74.102508, -124.670321) "></path>
            <path d="M238.67342,69.8091719 C240.040607,69.8091719 240.854084,69.0982344 241.11385,67.6763594 C241.26424,67.0064375 241.377033,66.5381758 241.452229,66.2715742 C241.527424,66.0049726 241.633381,65.7383711 241.7701,65.4717695 C241.906818,65.2051679 242.115314,64.9112226 242.395588,64.5899336 C242.675861,64.2686445 243.04842,63.8960859 243.513264,63.4722578 C245.194904,61.9683515 246.360432,60.8985273 247.009846,60.2627851 C247.65926,59.6270429 248.219807,58.8716719 248.691486,57.9966719 C249.163166,57.1216719 249.399006,56.1031172 249.399006,54.9410078 C249.399006,53.4644453 248.985432,52.0972578 248.158283,50.8394453 C247.331135,49.5816328 246.158771,48.5870039 244.641193,47.8555586 C243.123615,47.1241133 241.373615,46.7583906 239.391193,46.7583906 C237.258381,46.7583906 235.39217,47.1958906 233.792561,48.0708906 C232.192951,48.9458906 230.976154,50.0498945 230.14217,51.3829023 C229.308186,52.7159101 228.891193,54.0318281 228.891193,55.3306562 C228.891193,55.9595625 229.154377,56.5440351 229.680744,57.0840742 C230.207111,57.6241133 230.853107,57.8941328 231.618732,57.8941328 C232.917561,57.8941328 233.799396,57.1216719 234.26424,55.57675 C234.756428,54.1001875 235.35799,52.9825117 236.068928,52.2237226 C236.779865,51.4649336 237.887287,51.085539 239.391193,51.085539 C240.67635,51.085539 241.725666,51.4615156 242.539143,52.2134687 C243.352619,52.9654219 243.759357,53.8882734 243.759357,54.9820234 C243.759357,55.5425703 243.626057,56.0621015 243.359455,56.5406172 C243.092854,57.0191328 242.764729,57.4532148 242.37508,57.8428633 C241.985432,58.2325117 241.353107,58.8101484 240.478107,59.5757734 C239.480061,60.4507734 238.687092,61.2061445 238.099201,61.8418867 C237.511311,62.4776289 237.039631,63.2159101 236.684162,64.0567304 C236.328693,64.8975508 236.150959,65.8921797 236.150959,67.0406172 C236.150959,67.9566328 236.393635,68.6470625 236.878986,69.1119062 C237.364338,69.57675 237.962482,69.8091719 238.67342,69.8091719 Z M238.899006,77.8072187 C239.705646,77.8072187 240.416584,77.5337812 241.031818,76.9869062 C241.647053,76.4400312 241.95467,75.6880781 241.95467,74.7310469 C241.95467,73.8697187 241.660725,73.1451094 241.072834,72.5572187 C240.484943,71.9693281 239.760334,71.6753828 238.899006,71.6753828 C238.024006,71.6753828 237.285725,71.9693281 236.684162,72.5572187 C236.0826,73.1451094 235.781818,73.8697187 235.781818,74.7310469 C235.781818,75.70175 236.092854,76.4571211 236.714924,76.9971601 C237.336994,77.5371992 238.065021,77.8072187 238.899006,77.8072187 Z" id="?" fill="#FF94EE" fill-rule="nonzero" transform="translate(239.145100, 62.282805) rotate(28.000000) translate(-239.145100, -62.282805) "></path>
        </g>
    </g>
</svg>