<svg xmlns="http://www.w3.org/2000/svg" width="48" height="51" viewBox="0 0 48 51">
    <g fill="none">
        <path d="M4.2 46.5C1.5 43.7 0 39.9 0 35.8 0 31.8 1.5 28 4.2 25.1L23.7 4.4C26.4 1.6 29.9 0 33.7 0 37.6 0 41.1 1.6 43.8 4.4L37.5 11.2C35.5 9.1 32 9.1 30 11.2L10.5 31.9C9.5 32.9 9 34.3 9 35.8 9 37.3 9.5 38.7 10.5 39.8L4.2 46.5Z" fill="#B368FC" />
        <path d="M14.3 50.9C10.4 50.9 6.9 49.4 4.2 46.5L10.5 39.8C12.5 41.9 16 41.9 18 39.8L37.5 19.1C38.5 18 39 16.6 39 15.1 39 13.6 38.5 12.2 37.5 11.2L43.8 4.4C46.5 7.3 48 11.1 48 15.1 48 19.2 46.5 23 43.8 25.8L24.3 46.5C21.6 49.4 18.1 50.9 14.3 50.9Z" fill="#1CB0F9" />
        <path d="M37.5 11.2C36.5 10.1 35.2 9.6 33.8 9.6L0.2 9.6 0.2 0 33.8 0C37.6 0 41.1 1.6 43.8 4.4L37.5 11.2Z" fill="#1EF7E7" />
        <path d="M47.8 51L14.2 51C10.4 51 6.9 49.4 4.2 46.5L10.5 39.8C11.5 40.8 12.8 41.4 14.2 41.4L47.8 41.4 47.8 51Z" fill="#6752F7" />
    </g>
</svg>
